<mxfile host="Electron" modified="2024-07-10T01:00:43.555Z" agent="Mozilla/5.0 (Macintosh; Intel Mac OS X 10_15_7) AppleWebKit/537.36 (KHTML, like Gecko) draw.io/24.6.4 Chrome/124.0.6367.207 Electron/30.0.6 Safari/537.36" etag="1Cu2pQLbpnNDyvSfYI1Q" version="24.6.4" type="device" pages="2">
  <diagram name="Onboarding" id="t2MzZW9pGKtbB2Ooh3lP">
    <mxGraphModel dx="2354" dy="1324" grid="0" gridSize="10" guides="0" tooltips="1" connect="1" arrows="1" fold="1" page="0" pageScale="1" pageWidth="850" pageHeight="1100" math="0" shadow="0">
      <root>
        <mxCell id="NcAq1nEZuETaazXwx4-U-0" />
        <mxCell id="NcAq1nEZuETaazXwx4-U-1" parent="NcAq1nEZuETaazXwx4-U-0" />
        <mxCell id="NcAq1nEZuETaazXwx4-U-2" value="" style="rounded=0;whiteSpace=wrap;html=1;shadow=1;sketch=1;jiggle=2;curveFitting=1;align=center;verticalAlign=middle;fontFamily=Gloria Hallelujah;fontSize=13;fontSource=https%3A%2F%2Ffonts.googleapis.com%2Fcss%3Ffamily%3DGloria%2BHallelujah;" parent="NcAq1nEZuETaazXwx4-U-1" vertex="1">
          <mxGeometry x="229" y="202" width="600" height="582" as="geometry" />
        </mxCell>
        <mxCell id="T-xyQ6KzFTJhyV4k8-1Z-2" value="Cloud Configuration Collection&lt;div style=&quot;font-size: 13px;&quot;&gt;(CSPM)&lt;/div&gt;" style="edgeStyle=orthogonalEdgeStyle;curved=1;rounded=0;hachureGap=4;orthogonalLoop=1;jettySize=auto;html=1;exitX=0.75;exitY=0;exitDx=0;exitDy=0;entryX=0;entryY=0.75;entryDx=0;entryDy=0;strokeColor=#FF00FF;strokeWidth=2;align=center;verticalAlign=middle;fontFamily=Architects Daughter;fontSource=https%3A%2F%2Ffonts.googleapis.com%2Fcss%3Ffamily%3DArchitects%2BDaughter;fontSize=13;fontColor=default;labelBackgroundColor=default;endArrow=classic;flowAnimation=1;dashed=1;dashPattern=1 2;" parent="NcAq1nEZuETaazXwx4-U-1" source="NcAq1nEZuETaazXwx4-U-3" target="VTeo_DVUwEcc_p55htbv-7" edge="1">
          <mxGeometry x="-0.0196" y="-58" relative="1" as="geometry">
            <mxPoint as="offset" />
            <mxPoint x="229" y="224.5" as="targetPoint" />
          </mxGeometry>
        </mxCell>
        <mxCell id="T-xyQ6KzFTJhyV4k8-1Z-4" value="Audit Log&amp;nbsp;&lt;div&gt;Collection &amp;amp; Analysis&lt;/div&gt;" style="edgeStyle=orthogonalEdgeStyle;curved=1;rounded=0;hachureGap=4;orthogonalLoop=1;jettySize=auto;html=1;exitX=0.5;exitY=0;exitDx=0;exitDy=0;entryX=0;entryY=0.25;entryDx=0;entryDy=0;strokeColor=#FF00FF;strokeWidth=2;align=center;verticalAlign=middle;fontFamily=Architects Daughter;fontSource=https%3A%2F%2Ffonts.googleapis.com%2Fcss%3Ffamily%3DArchitects%2BDaughter;fontSize=13;fontColor=default;labelBackgroundColor=default;endArrow=classic;flowAnimation=1;dashed=1;dashPattern=1 2;" parent="NcAq1nEZuETaazXwx4-U-1" source="NcAq1nEZuETaazXwx4-U-3" target="VTeo_DVUwEcc_p55htbv-7" edge="1">
          <mxGeometry x="-0.0849" y="-17" relative="1" as="geometry">
            <mxPoint as="offset" />
            <mxPoint x="229" y="209.5" as="targetPoint" />
          </mxGeometry>
        </mxCell>
        <mxCell id="NcAq1nEZuETaazXwx4-U-3" value="Prisma&lt;div style=&quot;font-size: 13px;&quot;&gt;Cloud&lt;br&gt;(SaaS)&lt;/div&gt;" style="rounded=1;whiteSpace=wrap;html=1;sketch=1;curveFitting=1;jiggle=2;fontFamily=Gloria Hallelujah;fontSize=13;shadow=1;fontSource=https%3A%2F%2Ffonts.googleapis.com%2Fcss%3Ffamily%3DGloria%2BHallelujah;" parent="NcAq1nEZuETaazXwx4-U-1" vertex="1">
          <mxGeometry x="-236" y="341" width="230" height="78" as="geometry" />
        </mxCell>
        <mxCell id="P75K7gAuZfAj4uCHvaLu-8" style="edgeStyle=orthogonalEdgeStyle;curved=1;rounded=0;hachureGap=4;orthogonalLoop=1;jettySize=auto;html=1;exitX=0.25;exitY=0;exitDx=0;exitDy=0;entryX=0.25;entryY=0;entryDx=0;entryDy=0;strokeColor=#00CC00;strokeWidth=2;align=center;verticalAlign=middle;fontFamily=Architects Daughter;fontSource=https%3A%2F%2Ffonts.googleapis.com%2Fcss%3Ffamily%3DArchitects%2BDaughter;fontSize=13;fontColor=default;labelBackgroundColor=default;endArrow=classic;flowAnimation=1;" parent="NcAq1nEZuETaazXwx4-U-1" source="VTeo_DVUwEcc_p55htbv-7" target="NcAq1nEZuETaazXwx4-U-3" edge="1">
          <mxGeometry relative="1" as="geometry">
            <mxPoint x="240.92749999999978" y="202" as="sourcePoint" />
          </mxGeometry>
        </mxCell>
        <mxCell id="NcAq1nEZuETaazXwx4-U-6" style="edgeStyle=orthogonalEdgeStyle;curved=1;rounded=0;orthogonalLoop=1;jettySize=auto;html=1;exitX=0;exitY=0.5;exitDx=0;exitDy=0;sketch=1;curveFitting=1;jiggle=2;fontFamily=Gloria Hallelujah;fontSource=https%3A%2F%2Ffonts.googleapis.com%2Fcss%3Ffamily%3DGloria%2BHallelujah;fontSize=13;entryX=1;entryY=0.5;entryDx=0;entryDy=0;" parent="NcAq1nEZuETaazXwx4-U-1" source="NcAq1nEZuETaazXwx4-U-8" target="NcAq1nEZuETaazXwx4-U-13" edge="1">
          <mxGeometry relative="1" as="geometry">
            <mxPoint x="455" y="491" as="targetPoint" />
          </mxGeometry>
        </mxCell>
        <mxCell id="NcAq1nEZuETaazXwx4-U-7" value="Network Flow logs" style="edgeStyle=orthogonalEdgeStyle;curved=1;rounded=0;orthogonalLoop=1;jettySize=auto;html=1;exitX=0.25;exitY=1;exitDx=0;exitDy=0;strokeColor=default;align=center;verticalAlign=middle;fontFamily=Gloria Hallelujah;fontSize=13;fontColor=default;labelBackgroundColor=default;endArrow=classic;flowAnimation=1;dashed=1;strokeWidth=2;fontSource=https%3A%2F%2Ffonts.googleapis.com%2Fcss%3Ffamily%3DGloria%2BHallelujah;entryX=1.008;entryY=0.365;entryDx=0;entryDy=0;entryPerimeter=0;" parent="NcAq1nEZuETaazXwx4-U-1" source="NcAq1nEZuETaazXwx4-U-8" target="VTeo_DVUwEcc_p55htbv-9" edge="1">
          <mxGeometry x="-0.0803" y="-28" relative="1" as="geometry">
            <mxPoint as="offset" />
            <mxPoint x="359" y="695" as="targetPoint" />
            <Array as="points" />
          </mxGeometry>
        </mxCell>
        <mxCell id="NcAq1nEZuETaazXwx4-U-8" value="" style="rounded=1;whiteSpace=wrap;html=1;fillColor=#f5f5f5;fontColor=#333333;strokeColor=#666666;sketch=1;curveFitting=1;jiggle=2;fontFamily=Gloria Hallelujah;fontSource=https%3A%2F%2Ffonts.googleapis.com%2Fcss%3Ffamily%3DGloria%2BHallelujah;fontSize=13;" parent="NcAq1nEZuETaazXwx4-U-1" vertex="1">
          <mxGeometry x="501" y="510" width="210" height="90" as="geometry" />
        </mxCell>
        <mxCell id="NcAq1nEZuETaazXwx4-U-12" style="edgeStyle=orthogonalEdgeStyle;curved=1;rounded=0;orthogonalLoop=1;jettySize=auto;html=1;exitX=0;exitY=0.5;exitDx=0;exitDy=0;sketch=1;curveFitting=1;jiggle=2;fontFamily=Gloria Hallelujah;entryX=0.98;entryY=0.325;entryDx=0;entryDy=0;entryPerimeter=0;fontSource=https%3A%2F%2Ffonts.googleapis.com%2Fcss%3Ffamily%3DGloria%2BHallelujah;fontSize=13;" parent="NcAq1nEZuETaazXwx4-U-1" target="NcAq1nEZuETaazXwx4-U-13" edge="1">
          <mxGeometry relative="1" as="geometry">
            <mxPoint x="501" y="438" as="sourcePoint" />
            <mxPoint x="455" y="481.5" as="targetPoint" />
          </mxGeometry>
        </mxCell>
        <mxCell id="NcAq1nEZuETaazXwx4-U-13" value="" style="rounded=1;whiteSpace=wrap;html=1;fillColor=#f5f5f5;fontColor=#333333;strokeColor=#666666;sketch=1;curveFitting=1;jiggle=2;fontFamily=Gloria Hallelujah;fontSource=https%3A%2F%2Ffonts.googleapis.com%2Fcss%3Ffamily%3DGloria%2BHallelujah;fontSize=13;" parent="NcAq1nEZuETaazXwx4-U-1" vertex="1">
          <mxGeometry x="257" y="392" width="100" height="220" as="geometry" />
        </mxCell>
        <mxCell id="NcAq1nEZuETaazXwx4-U-18" value="" style="line;strokeWidth=2;html=1;rounded=1;shadow=0;strokeColor=#808080;align=center;verticalAlign=middle;fontFamily=Gloria Hallelujah;fontSize=13;fontColor=default;fillColor=#e1d5e7;dashed=1;fontSource=https%3A%2F%2Ffonts.googleapis.com%2Fcss%3Ffamily%3DGloria%2BHallelujah;" parent="NcAq1nEZuETaazXwx4-U-1" vertex="1">
          <mxGeometry x="249" y="342" width="540" height="11.25" as="geometry" />
        </mxCell>
        <mxCell id="NcAq1nEZuETaazXwx4-U-21" style="edgeStyle=orthogonalEdgeStyle;curved=1;rounded=0;sketch=1;jiggle=2;curveFitting=1;orthogonalLoop=1;jettySize=auto;html=1;exitX=0.75;exitY=0.1;exitDx=0;exitDy=0;exitPerimeter=0;strokeColor=default;align=center;verticalAlign=middle;fontFamily=Gloria Hallelujah;fontSize=13;fontColor=default;labelBackgroundColor=default;endArrow=classic;fontSource=https%3A%2F%2Ffonts.googleapis.com%2Fcss%3Ffamily%3DGloria%2BHallelujah;" parent="NcAq1nEZuETaazXwx4-U-1" source="NcAq1nEZuETaazXwx4-U-22" target="VTeo_DVUwEcc_p55htbv-13" edge="1">
          <mxGeometry relative="1" as="geometry">
            <mxPoint x="283" y="486" as="targetPoint" />
          </mxGeometry>
        </mxCell>
        <mxCell id="NcAq1nEZuETaazXwx4-U-22" value="Application Users" style="shape=umlActor;verticalLabelPosition=bottom;verticalAlign=top;html=1;outlineConnect=0;rounded=1;shadow=1;sketch=1;jiggle=2;curveFitting=1;strokeColor=#1A1A1A;align=center;fontFamily=Gloria Hallelujah;fontSize=13;fontColor=default;fillColor=#e1d5e7;fontSource=https%3A%2F%2Ffonts.googleapis.com%2Fcss%3Ffamily%3DGloria%2BHallelujah;" parent="NcAq1nEZuETaazXwx4-U-1" vertex="1">
          <mxGeometry x="123" y="422" width="30" height="60" as="geometry" />
        </mxCell>
        <mxCell id="NcAq1nEZuETaazXwx4-U-24" value="" style="rounded=1;whiteSpace=wrap;html=1;fillColor=#fff2cc;strokeColor=#d6b656;sketch=1;curveFitting=1;jiggle=2;fontFamily=Gloria Hallelujah;fontSource=https%3A%2F%2Ffonts.googleapis.com%2Fcss%3Ffamily%3DGloria%2BHallelujah;fontSize=13;" parent="NcAq1nEZuETaazXwx4-U-1" vertex="1">
          <mxGeometry x="389" y="222" width="210" height="90" as="geometry" />
        </mxCell>
        <mxCell id="NcAq1nEZuETaazXwx4-U-26" style="edgeStyle=orthogonalEdgeStyle;curved=1;rounded=0;orthogonalLoop=1;jettySize=auto;html=1;exitX=-0.086;exitY=0.314;exitDx=0;exitDy=0;exitPerimeter=0;strokeColor=#FF8000;align=center;verticalAlign=middle;fontFamily=Gloria Hallelujah;fontSize=13;fontColor=default;labelBackgroundColor=default;endArrow=classic;fontSource=https%3A%2F%2Ffonts.googleapis.com%2Fcss%3Ffamily%3DGloria%2BHallelujah;flowAnimation=1;strokeWidth=2;" parent="NcAq1nEZuETaazXwx4-U-1" source="VTeo_DVUwEcc_p55htbv-16" target="VTeo_DVUwEcc_p55htbv-14" edge="1">
          <mxGeometry relative="1" as="geometry">
            <mxPoint x="475" y="261" as="sourcePoint" />
            <mxPoint x="302.3299999999999" y="290" as="targetPoint" />
          </mxGeometry>
        </mxCell>
        <mxCell id="NcAq1nEZuETaazXwx4-U-30" value="" style="rounded=1;whiteSpace=wrap;html=1;fillColor=#f5f5f5;fontColor=#333333;strokeColor=#666666;sketch=1;curveFitting=1;jiggle=2;fontFamily=Gloria Hallelujah;fontSource=https%3A%2F%2Ffonts.googleapis.com%2Fcss%3Ffamily%3DGloria%2BHallelujah;fontSize=13;" parent="NcAq1nEZuETaazXwx4-U-1" vertex="1">
          <mxGeometry x="499" y="392" width="210" height="90" as="geometry" />
        </mxCell>
        <mxCell id="NcAq1nEZuETaazXwx4-U-37" value="Cloud Workload&lt;div style=&quot;font-size: 13px;&quot;&gt;Scanning Results&lt;/div&gt;" style="edgeStyle=orthogonalEdgeStyle;curved=1;rounded=0;orthogonalLoop=1;jettySize=auto;html=1;strokeColor=#FF8000;align=center;verticalAlign=middle;fontFamily=Gloria Hallelujah;fontSize=13;fontColor=default;labelBackgroundColor=default;endArrow=classic;entryX=1;entryY=0.5;entryDx=0;entryDy=0;flowAnimation=1;dashed=1;strokeWidth=2;fontSource=https%3A%2F%2Ffonts.googleapis.com%2Fcss%3Ffamily%3DGloria%2BHallelujah;exitX=-0.05;exitY=0.484;exitDx=0;exitDy=0;exitPerimeter=0;" parent="NcAq1nEZuETaazXwx4-U-1" source="VTeo_DVUwEcc_p55htbv-14" target="NcAq1nEZuETaazXwx4-U-3" edge="1">
          <mxGeometry x="0.1477" y="-15" relative="1" as="geometry">
            <mxPoint x="264" y="290" as="sourcePoint" />
            <mxPoint x="49" y="347" as="targetPoint" />
            <mxPoint as="offset" />
            <Array as="points">
              <mxPoint x="285" y="290" />
              <mxPoint x="182" y="290" />
              <mxPoint x="182" y="380" />
            </Array>
          </mxGeometry>
        </mxCell>
        <mxCell id="NcAq1nEZuETaazXwx4-U-38" value="&lt;ul style=&quot;font-size: 13px;&quot;&gt;&lt;li style=&quot;font-size: 13px;&quot;&gt;Vulerability&lt;/li&gt;&lt;li style=&quot;font-size: 13px;&quot;&gt;Compliance&lt;/li&gt;&lt;li style=&quot;font-size: 13px;&quot;&gt;Embedded Secret&lt;/li&gt;&lt;li style=&quot;font-size: 13px;&quot;&gt;Malware&lt;/li&gt;&lt;/ul&gt;" style="edgeStyle=orthogonalEdgeStyle;curved=1;rounded=0;orthogonalLoop=1;jettySize=auto;html=1;exitX=0.5;exitY=0;exitDx=0;exitDy=0;entryX=1.019;entryY=0.291;entryDx=0;entryDy=0;entryPerimeter=0;strokeColor=#FF8000;align=left;verticalAlign=middle;fontFamily=Gloria Hallelujah;fontSize=13;fontColor=default;labelBackgroundColor=none;endArrow=classic;fontSource=https%3A%2F%2Ffonts.googleapis.com%2Fcss%3Ffamily%3DGloria%2BHallelujah;flowAnimation=1;strokeWidth=2;" parent="NcAq1nEZuETaazXwx4-U-1" source="VTeo_DVUwEcc_p55htbv-23" target="VTeo_DVUwEcc_p55htbv-16" edge="1">
          <mxGeometry x="0.087" relative="1" as="geometry">
            <mxPoint as="offset" />
            <mxPoint x="629" y="357" as="sourcePoint" />
            <mxPoint x="513" y="261" as="targetPoint" />
          </mxGeometry>
        </mxCell>
        <mxCell id="NcAq1nEZuETaazXwx4-U-39" value="Mount &amp;amp; Scan" style="text;html=1;align=center;verticalAlign=middle;whiteSpace=wrap;rounded=0;fontFamily=Gloria Hallelujah;fontSize=13;fontColor=default;fontSource=https%3A%2F%2Ffonts.googleapis.com%2Fcss%3Ffamily%3DGloria%2BHallelujah;" parent="NcAq1nEZuETaazXwx4-U-1" vertex="1">
          <mxGeometry x="619" y="312" width="118" height="30" as="geometry" />
        </mxCell>
        <mxCell id="NcAq1nEZuETaazXwx4-U-40" value="" style="group;fontSize=13;fontFamily=Gloria Hallelujah;fontSource=https%3A%2F%2Ffonts.googleapis.com%2Fcss%3Ffamily%3DGloria%2BHallelujah;" parent="NcAq1nEZuETaazXwx4-U-1" vertex="1" connectable="0">
          <mxGeometry x="737" y="287" width="57.14" height="50" as="geometry" />
        </mxCell>
        <mxCell id="NcAq1nEZuETaazXwx4-U-41" value="" style="curved=1;endArrow=classic;html=1;rounded=0;sketch=1;jiggle=2;curveFitting=1;strokeColor=default;align=center;verticalAlign=middle;fontFamily=Gloria Hallelujah;fontSize=13;fontColor=default;labelBackgroundColor=default;edgeStyle=orthogonalEdgeStyle;fontSource=https%3A%2F%2Ffonts.googleapis.com%2Fcss%3Ffamily%3DGloria%2BHallelujah;" parent="NcAq1nEZuETaazXwx4-U-40" edge="1">
          <mxGeometry width="50" height="50" relative="1" as="geometry">
            <mxPoint x="21.427500000000002" y="50" as="sourcePoint" />
            <mxPoint x="57.14" y="14.285714285714286" as="targetPoint" />
            <Array as="points">
              <mxPoint x="57.14" y="50" />
              <mxPoint x="21.427500000000002" y="14.285714285714286" />
            </Array>
          </mxGeometry>
        </mxCell>
        <mxCell id="NcAq1nEZuETaazXwx4-U-42" value="" style="curved=1;endArrow=classic;html=1;rounded=0;sketch=1;jiggle=2;curveFitting=1;strokeColor=default;align=center;verticalAlign=middle;fontFamily=Gloria Hallelujah;fontSize=13;fontColor=default;labelBackgroundColor=default;edgeStyle=orthogonalEdgeStyle;fontSource=https%3A%2F%2Ffonts.googleapis.com%2Fcss%3Ffamily%3DGloria%2BHallelujah;" parent="NcAq1nEZuETaazXwx4-U-40" edge="1">
          <mxGeometry width="50" height="50" relative="1" as="geometry">
            <mxPoint x="35.712500000000006" as="sourcePoint" />
            <mxPoint y="35.714285714285715" as="targetPoint" />
            <Array as="points">
              <mxPoint />
              <mxPoint x="35.712500000000006" y="35.714285714285715" />
            </Array>
          </mxGeometry>
        </mxCell>
        <mxCell id="NcAq1nEZuETaazXwx4-U-43" value="24&lt;div style=&quot;font-size: 13px;&quot;&gt;Hours&lt;/div&gt;" style="text;html=1;align=center;verticalAlign=middle;whiteSpace=wrap;rounded=0;fontFamily=Gloria Hallelujah;fontSize=13;fontColor=default;fontSource=https%3A%2F%2Ffonts.googleapis.com%2Fcss%3Ffamily%3DGloria%2BHallelujah;" parent="NcAq1nEZuETaazXwx4-U-40" vertex="1">
          <mxGeometry x="7.1425" y="14.285714285714286" width="42.855000000000004" height="21.42857142857143" as="geometry" />
        </mxCell>
        <mxCell id="NcAq1nEZuETaazXwx4-U-44" value="PaaS" style="rounded=1;whiteSpace=wrap;html=1;fillColor=#f5f5f5;fontColor=#333333;strokeColor=#666666;sketch=1;curveFitting=1;jiggle=2;fontFamily=Gloria Hallelujah;fontSource=https%3A%2F%2Ffonts.googleapis.com%2Fcss%3Ffamily%3DGloria%2BHallelujah;fontSize=13;" parent="NcAq1nEZuETaazXwx4-U-1" vertex="1">
          <mxGeometry x="729" y="392" width="72" height="210" as="geometry" />
        </mxCell>
        <mxCell id="NcAq1nEZuETaazXwx4-U-45" value="ENtraID" style="rounded=1;whiteSpace=wrap;html=1;fillColor=#f5f5f5;fontColor=#333333;strokeColor=#666666;sketch=1;curveFitting=1;jiggle=2;fontFamily=Gloria Hallelujah;fontSource=https%3A%2F%2Ffonts.googleapis.com%2Fcss%3Ffamily%3DGloria%2BHallelujah;fontSize=13;" parent="NcAq1nEZuETaazXwx4-U-1" vertex="1">
          <mxGeometry x="729.57" y="612" width="72" height="30" as="geometry" />
        </mxCell>
        <mxCell id="T-xyQ6KzFTJhyV4k8-1Z-5" style="edgeStyle=orthogonalEdgeStyle;curved=1;rounded=0;hachureGap=4;orthogonalLoop=1;jettySize=auto;html=1;strokeColor=#000000;strokeWidth=1;align=center;verticalAlign=middle;fontFamily=Architects Daughter;fontSource=https%3A%2F%2Ffonts.googleapis.com%2Fcss%3Ffamily%3DArchitects%2BDaughter;fontSize=11;fontColor=default;labelBackgroundColor=default;endArrow=classic;flowAnimation=0;sketch=1;curveFitting=1;jiggle=2;" parent="NcAq1nEZuETaazXwx4-U-1" source="NcAq1nEZuETaazXwx4-U-87" edge="1">
          <mxGeometry relative="1" as="geometry">
            <mxPoint x="275.5" y="195.5" as="targetPoint" />
          </mxGeometry>
        </mxCell>
        <mxCell id="NcAq1nEZuETaazXwx4-U-87" value="Whitelisting Public IP From Prisma CLoud" style="text;html=1;align=center;verticalAlign=middle;whiteSpace=wrap;rounded=0;fontFamily=Gloria Hallelujah;fontSource=https%3A%2F%2Ffonts.googleapis.com%2Fcss%3Ffamily%3DGloria%2BHallelujah;fontSize=13;" parent="NcAq1nEZuETaazXwx4-U-1" vertex="1">
          <mxGeometry x="311" y="126" width="125" height="30" as="geometry" />
        </mxCell>
        <mxCell id="NcAq1nEZuETaazXwx4-U-89" value="Azure Enterprise&lt;div&gt;Application&lt;/div&gt;" style="shape=umlActor;verticalLabelPosition=bottom;verticalAlign=top;html=1;outlineConnect=0;sketch=1;hachureGap=4;jiggle=2;curveFitting=1;fontFamily=Architects Daughter;fontSource=https%3A%2F%2Ffonts.googleapis.com%2Fcss%3Ffamily%3DArchitects%2BDaughter;fontSize=13;" parent="NcAq1nEZuETaazXwx4-U-1" vertex="1">
          <mxGeometry x="-177" y="206" width="20" height="41" as="geometry" />
        </mxCell>
        <mxCell id="NcAq1nEZuETaazXwx4-U-90" value="Whitelisting" style="text;html=1;align=center;verticalAlign=middle;whiteSpace=wrap;rounded=0;fontFamily=Gloria Hallelujah;fontSource=https%3A%2F%2Ffonts.googleapis.com%2Fcss%3Ffamily%3DGloria%2BHallelujah;fontSize=13;" parent="NcAq1nEZuETaazXwx4-U-1" vertex="1">
          <mxGeometry x="290" y="626" width="72" height="30" as="geometry" />
        </mxCell>
        <mxCell id="P75K7gAuZfAj4uCHvaLu-4" value="Terraform Script" style="edgeStyle=orthogonalEdgeStyle;rounded=0;hachureGap=4;orthogonalLoop=1;jettySize=auto;html=1;entryX=0.5;entryY=0;entryDx=0;entryDy=0;fontFamily=Architects Daughter;fontSource=https%3A%2F%2Ffonts.googleapis.com%2Fcss%3Ffamily%3DArchitects%2BDaughter;curved=1;flowAnimation=1;exitX=0.5;exitY=0;exitDx=0;exitDy=0;strokeWidth=2;strokeColor=#00CC00;fontSize=13;" parent="NcAq1nEZuETaazXwx4-U-1" source="P75K7gAuZfAj4uCHvaLu-0" edge="1">
          <mxGeometry x="-0.003" relative="1" as="geometry">
            <Array as="points">
              <mxPoint x="-419" y="101" />
              <mxPoint x="253" y="101" />
            </Array>
            <mxPoint as="offset" />
            <mxPoint x="252.85500000000002" y="202" as="targetPoint" />
          </mxGeometry>
        </mxCell>
        <mxCell id="P75K7gAuZfAj4uCHvaLu-0" value="&lt;div style=&quot;font-size: 13px;&quot;&gt;Terraform&lt;/div&gt;&lt;div style=&quot;font-size: 13px;&quot;&gt;Template&lt;br&gt;For Creating Role&lt;/div&gt;" style="shape=document;whiteSpace=wrap;html=1;boundedLbl=1;sketch=1;hachureGap=4;jiggle=2;curveFitting=1;fontFamily=Architects Daughter;fontSource=https%3A%2F%2Ffonts.googleapis.com%2Fcss%3Ffamily%3DArchitects%2BDaughter;fontSize=13;fillColor=#fff2cc;strokeColor=#d6b656;" parent="NcAq1nEZuETaazXwx4-U-1" vertex="1">
          <mxGeometry x="-479" y="307" width="120" height="80" as="geometry" />
        </mxCell>
        <mxCell id="P75K7gAuZfAj4uCHvaLu-1" value="Generate" style="edgeStyle=orthogonalEdgeStyle;rounded=0;hachureGap=4;orthogonalLoop=1;jettySize=auto;html=1;entryX=1.001;entryY=0.319;entryDx=0;entryDy=0;entryPerimeter=0;fontFamily=Architects Daughter;fontSource=https%3A%2F%2Ffonts.googleapis.com%2Fcss%3Ffamily%3DArchitects%2BDaughter;flowAnimation=1;curved=1;strokeWidth=2;strokeColor=#00CC00;fontSize=13;" parent="NcAq1nEZuETaazXwx4-U-1" source="NcAq1nEZuETaazXwx4-U-3" target="P75K7gAuZfAj4uCHvaLu-0" edge="1">
          <mxGeometry relative="1" as="geometry" />
        </mxCell>
        <mxCell id="P75K7gAuZfAj4uCHvaLu-15" value="&lt;span style=&quot;color: rgb(0, 0, 0); font-family: &amp;quot;Architects Daughter&amp;quot;; font-size: 13px; font-style: normal; font-variant-ligatures: normal; font-variant-caps: normal; font-weight: 400; letter-spacing: normal; orphans: 2; text-align: center; text-indent: 0px; text-transform: none; widows: 2; word-spacing: 0px; -webkit-text-stroke-width: 0px; white-space: normal; text-decoration-thickness: initial; text-decoration-style: initial; text-decoration-color: initial; float: none; display: inline !important;&quot;&gt;Prisma Cloud&lt;/span&gt;&lt;div style=&quot;forced-color-adjust: none; color: rgb(0, 0, 0); font-family: &amp;quot;Architects Daughter&amp;quot;; font-size: 13px; font-style: normal; font-variant-ligatures: normal; font-variant-caps: normal; font-weight: 400; letter-spacing: normal; orphans: 2; text-align: center; text-indent: 0px; text-transform: none; widows: 2; word-spacing: 0px; -webkit-text-stroke-width: 0px; white-space: normal; text-decoration-thickness: initial; text-decoration-style: initial; text-decoration-color: initial;&quot;&gt;Readonly&lt;/div&gt;" style="shape=callout;whiteSpace=wrap;html=1;perimeter=calloutPerimeter;sketch=1;hachureGap=4;jiggle=2;curveFitting=1;fontFamily=Architects Daughter;fontSource=https%3A%2F%2Ffonts.googleapis.com%2Fcss%3Ffamily%3DArchitects%2BDaughter;fontSize=13;labelBackgroundColor=none;position2=0.74;fillColor=#fff2cc;gradientColor=#ffd966;strokeColor=#d6b656;" parent="NcAq1nEZuETaazXwx4-U-1" vertex="1">
          <mxGeometry x="-231" y="135" width="120" height="78" as="geometry" />
        </mxCell>
        <mxCell id="P75K7gAuZfAj4uCHvaLu-16" value="Tenant ID&lt;div&gt;Subscription ID&lt;/div&gt;" style="shape=callout;whiteSpace=wrap;html=1;perimeter=calloutPerimeter;sketch=1;hachureGap=4;jiggle=2;curveFitting=1;fontFamily=Architects Daughter;fontSource=https%3A%2F%2Ffonts.googleapis.com%2Fcss%3Ffamily%3DArchitects%2BDaughter;fontSize=13;labelBackgroundColor=none;position2=0.39;fillColor=#fff2cc;gradientColor=#ffd966;strokeColor=#d6b656;" parent="NcAq1nEZuETaazXwx4-U-1" vertex="1">
          <mxGeometry x="-357" y="251" width="120" height="78" as="geometry" />
        </mxCell>
        <mxCell id="7pGZ9WqOaXK99MdqoYnM-0" value="Azure&lt;div&gt;Global Admin&lt;/div&gt;" style="shape=umlActor;verticalLabelPosition=bottom;verticalAlign=top;html=1;outlineConnect=0;sketch=1;hachureGap=4;jiggle=2;curveFitting=1;fontFamily=Architects Daughter;fontSource=https%3A%2F%2Ffonts.googleapis.com%2Fcss%3Ffamily%3DArchitects%2BDaughter;fontSize=13;fontColor=default;labelBackgroundColor=default;" parent="NcAq1nEZuETaazXwx4-U-1" vertex="1">
          <mxGeometry x="-194" y="-6" width="25" height="49" as="geometry" />
        </mxCell>
        <mxCell id="7pGZ9WqOaXK99MdqoYnM-6" value="5-20mins" style="text;html=1;align=center;verticalAlign=middle;whiteSpace=wrap;rounded=0;fontFamily=Gloria Hallelujah;fontSource=https%3A%2F%2Ffonts.googleapis.com%2Fcss%3Ffamily%3DGloria%2BHallelujah;fontSize=13;fontColor=default;labelBackgroundColor=#FFFF33;fontStyle=1" parent="NcAq1nEZuETaazXwx4-U-1" vertex="1">
          <mxGeometry x="150" y="230" width="60" height="30" as="geometry" />
        </mxCell>
        <mxCell id="7pGZ9WqOaXK99MdqoYnM-7" value="CMDB" style="shape=cylinder3;whiteSpace=wrap;html=1;boundedLbl=1;backgroundOutline=1;size=15;sketch=1;hachureGap=4;jiggle=2;curveFitting=1;fontFamily=Architects Daughter;fontSource=https%3A%2F%2Ffonts.googleapis.com%2Fcss%3Ffamily%3DArchitects%2BDaughter;fontSize=13;labelBackgroundColor=none;fillColor=#f5f5f5;strokeColor=#666666;gradientColor=#b3b3b3;" parent="NcAq1nEZuETaazXwx4-U-1" vertex="1">
          <mxGeometry x="-220" y="391" width="60" height="65" as="geometry" />
        </mxCell>
        <mxCell id="7pGZ9WqOaXK99MdqoYnM-9" value="Store&lt;div style=&quot;font-size: 13px;&quot;&gt;Configuration&lt;/div&gt;" style="edgeStyle=orthogonalEdgeStyle;curved=1;rounded=0;hachureGap=4;orthogonalLoop=1;jettySize=auto;html=1;exitX=0.5;exitY=1;exitDx=0;exitDy=0;entryX=0.5;entryY=1;entryDx=0;entryDy=0;entryPerimeter=0;strokeColor=#7F00FF;strokeWidth=2;align=center;verticalAlign=middle;fontFamily=Architects Daughter;fontSource=https%3A%2F%2Ffonts.googleapis.com%2Fcss%3Ffamily%3DArchitects%2BDaughter;fontSize=13;fontColor=default;labelBackgroundColor=default;endArrow=classic;flowAnimation=1;dashed=1;dashPattern=1 4;" parent="NcAq1nEZuETaazXwx4-U-1" source="NcAq1nEZuETaazXwx4-U-3" target="7pGZ9WqOaXK99MdqoYnM-7" edge="1">
          <mxGeometry x="-0.5319" y="-4" relative="1" as="geometry">
            <Array as="points">
              <mxPoint x="-121" y="497" />
              <mxPoint x="-190" y="497" />
            </Array>
            <mxPoint as="offset" />
          </mxGeometry>
        </mxCell>
        <mxCell id="T-xyQ6KzFTJhyV4k8-1Z-0" value="Network Flog Logs&lt;div style=&quot;font-size: 13px;&quot;&gt;Collection &amp;amp; Analysis&lt;/div&gt;" style="edgeStyle=orthogonalEdgeStyle;curved=1;rounded=0;orthogonalLoop=1;jettySize=auto;html=1;exitX=0.75;exitY=1;exitDx=0;exitDy=0;strokeColor=#0000FF;strokeWidth=2;align=center;verticalAlign=middle;fontFamily=Gloria Hallelujah;fontSource=https%3A%2F%2Ffonts.googleapis.com%2Fcss%3Ffamily%3DGloria%2BHallelujah;fontSize=13;fontColor=default;labelBackgroundColor=default;endArrow=classic;flowAnimation=1;dashed=1;dashPattern=1 4;entryX=0.015;entryY=0.375;entryDx=0;entryDy=0;entryPerimeter=0;" parent="NcAq1nEZuETaazXwx4-U-1" source="NcAq1nEZuETaazXwx4-U-3" target="VTeo_DVUwEcc_p55htbv-9" edge="1">
          <mxGeometry x="0.1198" y="80" relative="1" as="geometry">
            <mxPoint x="1" as="offset" />
            <mxPoint x="155" y="704" as="targetPoint" />
          </mxGeometry>
        </mxCell>
        <mxCell id="T-xyQ6KzFTJhyV4k8-1Z-8" style="edgeStyle=orthogonalEdgeStyle;curved=1;rounded=0;hachureGap=4;orthogonalLoop=1;jettySize=auto;html=1;exitX=0;exitY=0.75;exitDx=0;exitDy=0;exitPerimeter=0;strokeColor=#808080;strokeWidth=2;align=center;verticalAlign=middle;fontFamily=Architects Daughter;fontSource=https%3A%2F%2Ffonts.googleapis.com%2Fcss%3Ffamily%3DArchitects%2BDaughter;fontSize=11;fontColor=default;labelBackgroundColor=default;endArrow=classic;flowAnimation=1;" parent="NcAq1nEZuETaazXwx4-U-1" edge="1">
          <mxGeometry relative="1" as="geometry">
            <mxPoint x="-136.5" y="93.5" as="targetPoint" />
            <mxPoint x="-98" y="29.5" as="sourcePoint" />
          </mxGeometry>
        </mxCell>
        <mxCell id="T-xyQ6KzFTJhyV4k8-1Z-7" style="edgeStyle=orthogonalEdgeStyle;curved=1;rounded=0;hachureGap=4;orthogonalLoop=1;jettySize=auto;html=1;exitX=0.5;exitY=0.5;exitDx=0;exitDy=0;exitPerimeter=0;entryX=0;entryY=0.5;entryDx=0;entryDy=0;entryPerimeter=0;strokeColor=#808080;strokeWidth=2;align=center;verticalAlign=middle;fontFamily=Architects Daughter;fontSource=https%3A%2F%2Ffonts.googleapis.com%2Fcss%3Ffamily%3DArchitects%2BDaughter;fontSize=11;fontColor=default;labelBackgroundColor=default;endArrow=classic;flowAnimation=1;" parent="NcAq1nEZuETaazXwx4-U-1" source="7pGZ9WqOaXK99MdqoYnM-0" edge="1">
          <mxGeometry relative="1" as="geometry">
            <mxPoint x="-98" y="18" as="targetPoint" />
          </mxGeometry>
        </mxCell>
        <mxCell id="T-xyQ6KzFTJhyV4k8-1Z-9" value="1" style="ellipse;whiteSpace=wrap;html=1;aspect=fixed;sketch=1;hachureGap=4;jiggle=2;curveFitting=1;fontFamily=Gloria Hallelujah;fontSource=https%3A%2F%2Ffonts.googleapis.com%2Fcss%3Ffamily%3DGloria%2BHallelujah;fontSize=16;labelBackgroundColor=default;fillColor=#ffe6cc;strokeColor=#d79b00;" parent="NcAq1nEZuETaazXwx4-U-1" vertex="1">
          <mxGeometry x="27" y="36" width="51" height="51" as="geometry" />
        </mxCell>
        <mxCell id="T-xyQ6KzFTJhyV4k8-1Z-10" value="Onboarding" style="text;html=1;align=center;verticalAlign=middle;whiteSpace=wrap;rounded=0;fontFamily=Gloria Hallelujah;fontSource=https%3A%2F%2Ffonts.googleapis.com%2Fcss%3Ffamily%3DGloria%2BHallelujah;fontSize=13;fontColor=default;labelBackgroundColor=default;" parent="NcAq1nEZuETaazXwx4-U-1" vertex="1">
          <mxGeometry x="83" y="47" width="88" height="30" as="geometry" />
        </mxCell>
        <mxCell id="T-xyQ6KzFTJhyV4k8-1Z-11" value="2" style="ellipse;whiteSpace=wrap;html=1;aspect=fixed;sketch=1;hachureGap=4;jiggle=2;curveFitting=1;fontFamily=Gloria Hallelujah;fontSource=https%3A%2F%2Ffonts.googleapis.com%2Fcss%3Ffamily%3DGloria%2BHallelujah;fontSize=16;labelBackgroundColor=default;fillColor=#ffe6cc;strokeColor=#d79b00;" parent="NcAq1nEZuETaazXwx4-U-1" vertex="1">
          <mxGeometry x="91" y="209" width="51" height="51" as="geometry" />
        </mxCell>
        <mxCell id="T-xyQ6KzFTJhyV4k8-1Z-13" value="3" style="ellipse;whiteSpace=wrap;html=1;aspect=fixed;sketch=1;hachureGap=4;jiggle=2;curveFitting=1;fontFamily=Gloria Hallelujah;fontSource=https%3A%2F%2Ffonts.googleapis.com%2Fcss%3Ffamily%3DGloria%2BHallelujah;fontSize=16;labelBackgroundColor=default;fillColor=#ffe6cc;strokeColor=#d79b00;" parent="NcAq1nEZuETaazXwx4-U-1" vertex="1">
          <mxGeometry x="104" y="594" width="51" height="51" as="geometry" />
        </mxCell>
        <mxCell id="T-xyQ6KzFTJhyV4k8-1Z-14" value="4" style="ellipse;whiteSpace=wrap;html=1;aspect=fixed;sketch=1;hachureGap=4;jiggle=2;curveFitting=1;fontFamily=Gloria Hallelujah;fontSource=https%3A%2F%2Ffonts.googleapis.com%2Fcss%3Ffamily%3DGloria%2BHallelujah;fontSize=16;labelBackgroundColor=default;fillColor=#ffe6cc;strokeColor=#d79b00;" parent="NcAq1nEZuETaazXwx4-U-1" vertex="1">
          <mxGeometry x="762" y="210" width="51" height="51" as="geometry" />
        </mxCell>
        <mxCell id="T-xyQ6KzFTJhyV4k8-1Z-16" value="" style="shape=image;imageAspect=0;aspect=fixed;verticalLabelPosition=bottom;verticalAlign=top;rounded=0;align=center;fontFamily=Gloria Hallelujah;fontSource=https%3A%2F%2Ffonts.googleapis.com%2Fcss%3Ffamily%3DGloria%2BHallelujah;fontSize=13;fontColor=default;labelBackgroundColor=default;fillColor=none;gradientColor=none;image=https://images.crunchbase.com/image/upload/c_pad,f_auto,q_auto:eco,dpr_1/rfuwf3yqq2cermkmrej6;" parent="NcAq1nEZuETaazXwx4-U-1" vertex="1">
          <mxGeometry x="-82" y="349" width="49.11" height="64" as="geometry" />
        </mxCell>
        <mxCell id="T-xyQ6KzFTJhyV4k8-1Z-36" value="" style="group" parent="NcAq1nEZuETaazXwx4-U-1" vertex="1" connectable="0">
          <mxGeometry x="626" y="558" width="22" height="24" as="geometry" />
        </mxCell>
        <mxCell id="T-xyQ6KzFTJhyV4k8-1Z-35" value="" style="whiteSpace=wrap;html=1;aspect=fixed;rounded=0;align=center;verticalAlign=middle;fontFamily=Gloria Hallelujah;fontSource=https%3A%2F%2Ffonts.googleapis.com%2Fcss%3Ffamily%3DGloria%2BHallelujah;fontSize=13;fontColor=default;labelBackgroundColor=none;fillColor=default;gradientColor=none;sketch=1;curveFitting=1;jiggle=2;" parent="T-xyQ6KzFTJhyV4k8-1Z-36" vertex="1">
          <mxGeometry width="22" height="22" as="geometry" />
        </mxCell>
        <mxCell id="T-xyQ6KzFTJhyV4k8-1Z-34" value="" style="shape=image;imageAspect=0;aspect=fixed;verticalLabelPosition=bottom;verticalAlign=top;rounded=0;align=center;fontFamily=Gloria Hallelujah;fontSource=https%3A%2F%2Ffonts.googleapis.com%2Fcss%3Ffamily%3DGloria%2BHallelujah;fontSize=13;fontColor=default;labelBackgroundColor=default;fillColor=none;gradientColor=none;image=https://images.crunchbase.com/image/upload/c_pad,f_auto,q_auto:eco,dpr_1/rfuwf3yqq2cermkmrej6;" parent="T-xyQ6KzFTJhyV4k8-1Z-36" vertex="1">
          <mxGeometry x="2" width="18.42" height="24" as="geometry" />
        </mxCell>
        <mxCell id="T-xyQ6KzFTJhyV4k8-1Z-39" style="edgeStyle=orthogonalEdgeStyle;curved=1;rounded=0;sketch=1;hachureGap=4;jiggle=2;curveFitting=1;orthogonalLoop=1;jettySize=auto;html=1;exitX=0.5;exitY=0;exitDx=0;exitDy=0;entryX=1;entryY=0.5;entryDx=0;entryDy=0;strokeColor=#000000;strokeWidth=1;align=center;verticalAlign=middle;fontFamily=Architects Daughter;fontSource=https%3A%2F%2Ffonts.googleapis.com%2Fcss%3Ffamily%3DArchitects%2BDaughter;fontSize=11;fontColor=default;labelBackgroundColor=default;endArrow=classic;flowAnimation=0;" parent="NcAq1nEZuETaazXwx4-U-1" source="T-xyQ6KzFTJhyV4k8-1Z-37" target="T-xyQ6KzFTJhyV4k8-1Z-35" edge="1">
          <mxGeometry relative="1" as="geometry" />
        </mxCell>
        <mxCell id="T-xyQ6KzFTJhyV4k8-1Z-37" value="Prisma Cloud&lt;div&gt;Agent&lt;/div&gt;" style="text;html=1;align=center;verticalAlign=middle;whiteSpace=wrap;rounded=0;fontFamily=Gloria Hallelujah;fontSource=https%3A%2F%2Ffonts.googleapis.com%2Fcss%3Ffamily%3DGloria%2BHallelujah;fontSize=13;" parent="NcAq1nEZuETaazXwx4-U-1" vertex="1">
          <mxGeometry x="623" y="611" width="95" height="35" as="geometry" />
        </mxCell>
        <mxCell id="T-xyQ6KzFTJhyV4k8-1Z-41" value="Agent Traffic" style="edgeStyle=orthogonalEdgeStyle;curved=1;rounded=0;orthogonalLoop=1;jettySize=auto;html=1;exitX=0;exitY=0.5;exitDx=0;exitDy=0;entryX=0.89;entryY=1.02;entryDx=0;entryDy=0;entryPerimeter=0;dashed=1;strokeColor=default;strokeWidth=1;align=center;verticalAlign=middle;fontFamily=Gloria Hallelujah;fontSource=https%3A%2F%2Ffonts.googleapis.com%2Fcss%3Ffamily%3DGloria%2BHallelujah;fontSize=13;fontColor=default;labelBackgroundColor=default;endArrow=classic;flowAnimation=1;dashPattern=1 4;" parent="NcAq1nEZuETaazXwx4-U-1" source="T-xyQ6KzFTJhyV4k8-1Z-34" target="NcAq1nEZuETaazXwx4-U-3" edge="1">
          <mxGeometry x="0.1301" relative="1" as="geometry">
            <Array as="points">
              <mxPoint x="628" y="545" />
              <mxPoint x="-31" y="545" />
            </Array>
            <mxPoint as="offset" />
          </mxGeometry>
        </mxCell>
        <mxCell id="T-xyQ6KzFTJhyV4k8-1Z-42" value="5" style="ellipse;whiteSpace=wrap;html=1;aspect=fixed;sketch=1;hachureGap=4;jiggle=2;curveFitting=1;fontFamily=Gloria Hallelujah;fontSource=https%3A%2F%2Ffonts.googleapis.com%2Fcss%3Ffamily%3DGloria%2BHallelujah;fontSize=16;labelBackgroundColor=default;fillColor=#ffe6cc;strokeColor=#d79b00;" parent="NcAq1nEZuETaazXwx4-U-1" vertex="1">
          <mxGeometry x="645" y="656" width="51" height="51" as="geometry" />
        </mxCell>
        <mxCell id="VTeo_DVUwEcc_p55htbv-4" value="Image&lt;div&gt;Scan&lt;/div&gt;" style="edgeStyle=orthogonalEdgeStyle;curved=1;rounded=0;hachureGap=4;orthogonalLoop=1;jettySize=auto;html=1;exitX=0.5;exitY=0;exitDx=0;exitDy=0;entryX=0.009;entryY=0.415;entryDx=0;entryDy=0;entryPerimeter=0;strokeColor=#7F00FF;strokeWidth=2;align=center;verticalAlign=middle;fontFamily=Architects Daughter;fontSource=https%3A%2F%2Ffonts.googleapis.com%2Fcss%3Ffamily%3DArchitects%2BDaughter;fontSize=11;fontColor=default;labelBackgroundColor=default;endArrow=classic;flowAnimation=1;" parent="NcAq1nEZuETaazXwx4-U-1" source="T-xyQ6KzFTJhyV4k8-1Z-35" target="VTeo_DVUwEcc_p55htbv-26" edge="1">
          <mxGeometry relative="1" as="geometry">
            <mxPoint x="745" y="536" as="targetPoint" />
          </mxGeometry>
        </mxCell>
        <mxCell id="VTeo_DVUwEcc_p55htbv-5" value="" style="shape=image;verticalLabelPosition=bottom;labelBackgroundColor=default;verticalAlign=top;aspect=fixed;imageAspect=0;image=https://blogs.vmware.com/cloudprovider/files/2019/04/og-image-8b3e4f7d-blog-aspect-ratio.png;" parent="NcAq1nEZuETaazXwx4-U-1" vertex="1">
          <mxGeometry x="-124" y="-22" width="97.3" height="73" as="geometry" />
        </mxCell>
        <mxCell id="VTeo_DVUwEcc_p55htbv-6" value="" style="shape=image;verticalLabelPosition=bottom;labelBackgroundColor=default;verticalAlign=top;aspect=fixed;imageAspect=0;image=https://blogs.vmware.com/cloudprovider/files/2019/04/og-image-8b3e4f7d-blog-aspect-ratio.png;" parent="NcAq1nEZuETaazXwx4-U-1" vertex="1">
          <mxGeometry x="-513" y="279" width="61.31" height="46" as="geometry" />
        </mxCell>
        <mxCell id="VTeo_DVUwEcc_p55htbv-7" value="" style="shape=image;verticalLabelPosition=bottom;labelBackgroundColor=default;verticalAlign=top;aspect=fixed;imageAspect=0;image=https://swimburger.net/media/ppnn3pcl/azure.png;" parent="NcAq1nEZuETaazXwx4-U-1" vertex="1">
          <mxGeometry x="234" y="203" width="47" height="47" as="geometry" />
        </mxCell>
        <mxCell id="VTeo_DVUwEcc_p55htbv-9" value="Storage&lt;div&gt;Account&lt;/div&gt;&lt;div&gt;(Flow logs)&lt;/div&gt;" style="image;aspect=fixed;html=1;points=[];align=center;fontSize=12;image=img/lib/azure2/storage/Storage_Accounts.svg;sketch=1;hachureGap=4;jiggle=2;curveFitting=1;fontFamily=Architects Daughter;fontSource=https%3A%2F%2Ffonts.googleapis.com%2Fcss%3Ffamily%3DArchitects%2BDaughter;fontColor=default;labelBackgroundColor=default;" parent="NcAq1nEZuETaazXwx4-U-1" vertex="1">
          <mxGeometry x="295" y="661" width="65" height="52" as="geometry" />
        </mxCell>
        <mxCell id="VTeo_DVUwEcc_p55htbv-10" value="" style="image;aspect=fixed;html=1;points=[];align=center;fontSize=12;image=img/lib/azure2/networking/Virtual_Networks.svg;sketch=1;hachureGap=4;jiggle=2;curveFitting=1;fontFamily=Architects Daughter;fontSource=https%3A%2F%2Ffonts.googleapis.com%2Fcss%3Ffamily%3DArchitects%2BDaughter;fontColor=default;labelBackgroundColor=default;" parent="NcAq1nEZuETaazXwx4-U-1" vertex="1">
          <mxGeometry x="263" y="400" width="30.15" height="18" as="geometry" />
        </mxCell>
        <mxCell id="VTeo_DVUwEcc_p55htbv-11" value="" style="image;aspect=fixed;html=1;points=[];align=center;fontSize=12;image=img/lib/azure2/networking/Virtual_Networks.svg;sketch=1;hachureGap=4;jiggle=2;curveFitting=1;fontFamily=Architects Daughter;fontSource=https%3A%2F%2Ffonts.googleapis.com%2Fcss%3Ffamily%3DArchitects%2BDaughter;fontColor=default;labelBackgroundColor=default;" parent="NcAq1nEZuETaazXwx4-U-1" vertex="1">
          <mxGeometry x="502" y="397" width="30.15" height="18" as="geometry" />
        </mxCell>
        <mxCell id="VTeo_DVUwEcc_p55htbv-12" value="" style="image;aspect=fixed;html=1;points=[];align=center;fontSize=12;image=img/lib/azure2/networking/Virtual_Networks.svg;sketch=1;hachureGap=4;jiggle=2;curveFitting=1;fontFamily=Architects Daughter;fontSource=https%3A%2F%2Ffonts.googleapis.com%2Fcss%3Ffamily%3DArchitects%2BDaughter;fontColor=default;labelBackgroundColor=default;" parent="NcAq1nEZuETaazXwx4-U-1" vertex="1">
          <mxGeometry x="505" y="518" width="30.15" height="18" as="geometry" />
        </mxCell>
        <mxCell id="VTeo_DVUwEcc_p55htbv-13" value="Network&lt;div&gt;Load&lt;/div&gt;&lt;div&gt;Balanacer&lt;/div&gt;" style="image;sketch=0;aspect=fixed;html=1;points=[];align=center;fontSize=12;image=img/lib/mscae/Load_Balancer_feature.svg;hachureGap=4;jiggle=2;curveFitting=1;fontFamily=Architects Daughter;fontSource=https%3A%2F%2Ffonts.googleapis.com%2Fcss%3Ffamily%3DArchitects%2BDaughter;fontColor=default;labelBackgroundColor=default;" parent="NcAq1nEZuETaazXwx4-U-1" vertex="1">
          <mxGeometry x="286" y="464" width="50" height="50" as="geometry" />
        </mxCell>
        <mxCell id="VTeo_DVUwEcc_p55htbv-14" value="Public IP" style="image;aspect=fixed;html=1;points=[];align=center;fontSize=12;image=img/lib/azure2/networking/Public_IP_Addresses.svg;sketch=1;hachureGap=4;jiggle=2;curveFitting=1;fontFamily=Architects Daughter;fontSource=https%3A%2F%2Ffonts.googleapis.com%2Fcss%3Ffamily%3DArchitects%2BDaughter;fontColor=default;labelBackgroundColor=default;" parent="NcAq1nEZuETaazXwx4-U-1" vertex="1">
          <mxGeometry x="287" y="266" width="40" height="32" as="geometry" />
        </mxCell>
        <mxCell id="VTeo_DVUwEcc_p55htbv-16" value="Prisma Cloud Scanner VM" style="image;aspect=fixed;html=1;points=[];align=center;fontSize=12;image=img/lib/azure2/compute/Virtual_Machine.svg;sketch=1;hachureGap=4;jiggle=2;curveFitting=1;fontFamily=Architects Daughter;fontSource=https%3A%2F%2Ffonts.googleapis.com%2Fcss%3Ffamily%3DArchitects%2BDaughter;fontColor=default;labelBackgroundColor=default;" parent="NcAq1nEZuETaazXwx4-U-1" vertex="1">
          <mxGeometry x="469" y="241" width="46.36" height="43" as="geometry" />
        </mxCell>
        <mxCell id="VTeo_DVUwEcc_p55htbv-18" value="VM" style="image;aspect=fixed;html=1;points=[];align=center;fontSize=12;image=img/lib/azure2/compute/Virtual_Machine.svg;sketch=1;hachureGap=4;jiggle=2;curveFitting=1;fontFamily=Architects Daughter;fontSource=https%3A%2F%2Ffonts.googleapis.com%2Fcss%3Ffamily%3DArchitects%2BDaughter;fontColor=default;labelBackgroundColor=default;" parent="NcAq1nEZuETaazXwx4-U-1" vertex="1">
          <mxGeometry x="538" y="413" width="46.36" height="43" as="geometry" />
        </mxCell>
        <mxCell id="VTeo_DVUwEcc_p55htbv-29" style="edgeStyle=orthogonalEdgeStyle;curved=1;rounded=0;orthogonalLoop=1;jettySize=auto;html=1;strokeColor=#FF8000;strokeWidth=2;align=left;verticalAlign=middle;fontFamily=Gloria Hallelujah;fontSource=https%3A%2F%2Ffonts.googleapis.com%2Fcss%3Ffamily%3DGloria%2BHallelujah;fontSize=13;fontColor=default;labelBackgroundColor=none;endArrow=classic;flowAnimation=1;" parent="NcAq1nEZuETaazXwx4-U-1" source="VTeo_DVUwEcc_p55htbv-19" target="VTeo_DVUwEcc_p55htbv-23" edge="1">
          <mxGeometry relative="1" as="geometry" />
        </mxCell>
        <mxCell id="VTeo_DVUwEcc_p55htbv-19" value="VM (AKS Node)" style="image;aspect=fixed;html=1;points=[];align=center;fontSize=12;image=img/lib/azure2/compute/Virtual_Machine.svg;sketch=1;hachureGap=4;jiggle=2;curveFitting=1;fontFamily=Architects Daughter;fontSource=https%3A%2F%2Ffonts.googleapis.com%2Fcss%3Ffamily%3DArchitects%2BDaughter;fontColor=default;labelBackgroundColor=default;" parent="NcAq1nEZuETaazXwx4-U-1" vertex="1">
          <mxGeometry x="609" y="414" width="46.36" height="43" as="geometry" />
        </mxCell>
        <mxCell id="VTeo_DVUwEcc_p55htbv-21" value="" style="image;aspect=fixed;html=1;points=[];align=center;fontSize=12;image=img/lib/azure2/compute/Disks_Snapshots.svg;sketch=1;hachureGap=4;jiggle=2;curveFitting=1;fontFamily=Architects Daughter;fontSource=https%3A%2F%2Ffonts.googleapis.com%2Fcss%3Ffamily%3DArchitects%2BDaughter;fontColor=default;labelBackgroundColor=default;" parent="NcAq1nEZuETaazXwx4-U-1" vertex="1">
          <mxGeometry x="541" y="335" width="41.18" height="43" as="geometry" />
        </mxCell>
        <mxCell id="VTeo_DVUwEcc_p55htbv-23" value="" style="image;aspect=fixed;html=1;points=[];align=center;fontSize=12;image=img/lib/azure2/compute/Disks_Snapshots.svg;sketch=1;hachureGap=4;jiggle=2;curveFitting=1;fontFamily=Architects Daughter;fontSource=https%3A%2F%2Ffonts.googleapis.com%2Fcss%3Ffamily%3DArchitects%2BDaughter;fontColor=default;labelBackgroundColor=default;" parent="NcAq1nEZuETaazXwx4-U-1" vertex="1">
          <mxGeometry x="612" y="336" width="41.18" height="43" as="geometry" />
        </mxCell>
        <mxCell id="VTeo_DVUwEcc_p55htbv-25" value="Function&lt;div&gt;App&lt;/div&gt;" style="image;aspect=fixed;html=1;points=[];align=center;fontSize=12;image=img/lib/azure2/compute/Function_Apps.svg;sketch=1;hachureGap=4;jiggle=2;curveFitting=1;fontFamily=Architects Daughter;fontSource=https%3A%2F%2Ffonts.googleapis.com%2Fcss%3Ffamily%3DArchitects%2BDaughter;fontColor=default;labelBackgroundColor=default;" parent="NcAq1nEZuETaazXwx4-U-1" vertex="1">
          <mxGeometry x="751" y="409" width="29.47" height="26" as="geometry" />
        </mxCell>
        <mxCell id="VTeo_DVUwEcc_p55htbv-26" value="Container&lt;div&gt;Regsitry&lt;/div&gt;" style="image;aspect=fixed;html=1;points=[];align=center;fontSize=12;image=img/lib/azure2/containers/Container_Registries.svg;sketch=1;hachureGap=4;jiggle=2;curveFitting=1;fontFamily=Architects Daughter;fontSource=https%3A%2F%2Ffonts.googleapis.com%2Fcss%3Ffamily%3DArchitects%2BDaughter;fontColor=default;labelBackgroundColor=default;" parent="NcAq1nEZuETaazXwx4-U-1" vertex="1">
          <mxGeometry x="747" y="523" width="36.79" height="33" as="geometry" />
        </mxCell>
        <mxCell id="VTeo_DVUwEcc_p55htbv-27" value="VM" style="image;aspect=fixed;html=1;points=[];align=center;fontSize=12;image=img/lib/azure2/compute/Virtual_Machine.svg;sketch=1;hachureGap=4;jiggle=2;curveFitting=1;fontFamily=Architects Daughter;fontSource=https%3A%2F%2Ffonts.googleapis.com%2Fcss%3Ffamily%3DArchitects%2BDaughter;fontColor=default;labelBackgroundColor=default;" parent="NcAq1nEZuETaazXwx4-U-1" vertex="1">
          <mxGeometry x="590" y="524" width="46.36" height="43" as="geometry" />
        </mxCell>
        <mxCell id="VTeo_DVUwEcc_p55htbv-28" style="edgeStyle=orthogonalEdgeStyle;curved=1;rounded=0;orthogonalLoop=1;jettySize=auto;html=1;entryX=0.469;entryY=1.007;entryDx=0;entryDy=0;entryPerimeter=0;strokeColor=#FF8000;strokeWidth=2;align=left;verticalAlign=middle;fontFamily=Gloria Hallelujah;fontSource=https%3A%2F%2Ffonts.googleapis.com%2Fcss%3Ffamily%3DGloria%2BHallelujah;fontSize=13;fontColor=default;labelBackgroundColor=none;endArrow=classic;flowAnimation=1;" parent="NcAq1nEZuETaazXwx4-U-1" source="VTeo_DVUwEcc_p55htbv-18" target="VTeo_DVUwEcc_p55htbv-21" edge="1">
          <mxGeometry relative="1" as="geometry" />
        </mxCell>
        <mxCell id="VTeo_DVUwEcc_p55htbv-30" style="edgeStyle=orthogonalEdgeStyle;curved=1;rounded=0;orthogonalLoop=1;jettySize=auto;html=1;entryX=1.014;entryY=0.291;entryDx=0;entryDy=0;entryPerimeter=0;strokeColor=#FF8000;strokeWidth=2;align=left;verticalAlign=middle;fontFamily=Gloria Hallelujah;fontSource=https%3A%2F%2Ffonts.googleapis.com%2Fcss%3Ffamily%3DGloria%2BHallelujah;fontSize=13;fontColor=default;labelBackgroundColor=none;endArrow=classic;flowAnimation=1;exitX=1.003;exitY=0.455;exitDx=0;exitDy=0;exitPerimeter=0;" parent="NcAq1nEZuETaazXwx4-U-1" source="VTeo_DVUwEcc_p55htbv-21" target="VTeo_DVUwEcc_p55htbv-16" edge="1">
          <mxGeometry relative="1" as="geometry" />
        </mxCell>
      </root>
    </mxGraphModel>
  </diagram>
  <diagram name="POV Onboarding" id="ru1iLSFdXb0ncWcPUHjk">
    <mxGraphModel dx="2114" dy="1324" grid="0" gridSize="10" guides="0" tooltips="1" connect="1" arrows="1" fold="1" page="0" pageScale="1" pageWidth="850" pageHeight="1100" math="0" shadow="0">
      <root>
        <mxCell id="VgbTZJyo0fbsDSGsg5zc-0" />
        <mxCell id="VgbTZJyo0fbsDSGsg5zc-1" parent="VgbTZJyo0fbsDSGsg5zc-0" />
        <mxCell id="VgbTZJyo0fbsDSGsg5zc-2" value="" style="rounded=0;whiteSpace=wrap;html=1;shadow=1;sketch=1;jiggle=2;curveFitting=1;align=center;verticalAlign=middle;fontFamily=Gloria Hallelujah;fontSize=13;fontSource=https%3A%2F%2Ffonts.googleapis.com%2Fcss%3Ffamily%3DGloria%2BHallelujah;" vertex="1" parent="VgbTZJyo0fbsDSGsg5zc-1">
          <mxGeometry x="229" y="202" width="600" height="582" as="geometry" />
        </mxCell>
        <mxCell id="VgbTZJyo0fbsDSGsg5zc-4" value="&lt;div&gt;&lt;br&gt;&lt;/div&gt;" style="edgeStyle=orthogonalEdgeStyle;curved=1;rounded=0;hachureGap=4;orthogonalLoop=1;jettySize=auto;html=1;exitX=0.5;exitY=0;exitDx=0;exitDy=0;entryX=0;entryY=0.25;entryDx=0;entryDy=0;strokeColor=#FF00FF;strokeWidth=2;align=center;verticalAlign=middle;fontFamily=Architects Daughter;fontSource=https%3A%2F%2Ffonts.googleapis.com%2Fcss%3Ffamily%3DArchitects%2BDaughter;fontSize=13;fontColor=default;labelBackgroundColor=default;endArrow=classic;flowAnimation=1;dashed=1;dashPattern=1 2;" edge="1" parent="VgbTZJyo0fbsDSGsg5zc-1" source="VgbTZJyo0fbsDSGsg5zc-5" target="VgbTZJyo0fbsDSGsg5zc-59">
          <mxGeometry x="-0.0849" y="-17" relative="1" as="geometry">
            <mxPoint as="offset" />
            <mxPoint x="229" y="209.5" as="targetPoint" />
          </mxGeometry>
        </mxCell>
        <mxCell id="VgbTZJyo0fbsDSGsg5zc-5" value="Prisma&lt;div style=&quot;font-size: 13px;&quot;&gt;Cloud&lt;br&gt;(SaaS)&lt;/div&gt;" style="rounded=1;whiteSpace=wrap;html=1;sketch=1;curveFitting=1;jiggle=2;fontFamily=Gloria Hallelujah;fontSize=13;shadow=1;fontSource=https%3A%2F%2Ffonts.googleapis.com%2Fcss%3Ffamily%3DGloria%2BHallelujah;" vertex="1" parent="VgbTZJyo0fbsDSGsg5zc-1">
          <mxGeometry x="-236" y="341" width="230" height="78" as="geometry" />
        </mxCell>
        <mxCell id="VgbTZJyo0fbsDSGsg5zc-6" style="edgeStyle=orthogonalEdgeStyle;curved=1;rounded=0;hachureGap=4;orthogonalLoop=1;jettySize=auto;html=1;exitX=0.25;exitY=0;exitDx=0;exitDy=0;entryX=0.25;entryY=0;entryDx=0;entryDy=0;strokeColor=#00CC00;strokeWidth=2;align=center;verticalAlign=middle;fontFamily=Architects Daughter;fontSource=https%3A%2F%2Ffonts.googleapis.com%2Fcss%3Ffamily%3DArchitects%2BDaughter;fontSize=13;fontColor=default;labelBackgroundColor=default;endArrow=classic;flowAnimation=1;" edge="1" parent="VgbTZJyo0fbsDSGsg5zc-1" source="VgbTZJyo0fbsDSGsg5zc-59" target="VgbTZJyo0fbsDSGsg5zc-5">
          <mxGeometry relative="1" as="geometry">
            <mxPoint x="240.92749999999978" y="202" as="sourcePoint" />
          </mxGeometry>
        </mxCell>
        <mxCell id="VgbTZJyo0fbsDSGsg5zc-7" style="edgeStyle=orthogonalEdgeStyle;curved=1;rounded=0;orthogonalLoop=1;jettySize=auto;html=1;exitX=0;exitY=0.5;exitDx=0;exitDy=0;sketch=1;curveFitting=1;jiggle=2;fontFamily=Gloria Hallelujah;fontSource=https%3A%2F%2Ffonts.googleapis.com%2Fcss%3Ffamily%3DGloria%2BHallelujah;fontSize=13;entryX=1;entryY=0.5;entryDx=0;entryDy=0;" edge="1" parent="VgbTZJyo0fbsDSGsg5zc-1" source="VgbTZJyo0fbsDSGsg5zc-9" target="VgbTZJyo0fbsDSGsg5zc-11">
          <mxGeometry relative="1" as="geometry">
            <mxPoint x="455" y="491" as="targetPoint" />
          </mxGeometry>
        </mxCell>
        <mxCell id="VgbTZJyo0fbsDSGsg5zc-8" value="Network Flow logs" style="edgeStyle=orthogonalEdgeStyle;curved=1;rounded=0;orthogonalLoop=1;jettySize=auto;html=1;exitX=0.25;exitY=1;exitDx=0;exitDy=0;strokeColor=default;align=center;verticalAlign=middle;fontFamily=Gloria Hallelujah;fontSize=13;fontColor=default;labelBackgroundColor=default;endArrow=classic;flowAnimation=1;dashed=1;strokeWidth=2;fontSource=https%3A%2F%2Ffonts.googleapis.com%2Fcss%3Ffamily%3DGloria%2BHallelujah;entryX=1.008;entryY=0.365;entryDx=0;entryDy=0;entryPerimeter=0;" edge="1" parent="VgbTZJyo0fbsDSGsg5zc-1" source="VgbTZJyo0fbsDSGsg5zc-9" target="VgbTZJyo0fbsDSGsg5zc-60">
          <mxGeometry x="-0.0803" y="-28" relative="1" as="geometry">
            <mxPoint as="offset" />
            <mxPoint x="359" y="695" as="targetPoint" />
            <Array as="points" />
          </mxGeometry>
        </mxCell>
        <mxCell id="VgbTZJyo0fbsDSGsg5zc-9" value="" style="rounded=1;whiteSpace=wrap;html=1;fillColor=#f5f5f5;fontColor=#333333;strokeColor=#666666;sketch=1;curveFitting=1;jiggle=2;fontFamily=Gloria Hallelujah;fontSource=https%3A%2F%2Ffonts.googleapis.com%2Fcss%3Ffamily%3DGloria%2BHallelujah;fontSize=13;" vertex="1" parent="VgbTZJyo0fbsDSGsg5zc-1">
          <mxGeometry x="501" y="510" width="210" height="90" as="geometry" />
        </mxCell>
        <mxCell id="VgbTZJyo0fbsDSGsg5zc-10" style="edgeStyle=orthogonalEdgeStyle;curved=1;rounded=0;orthogonalLoop=1;jettySize=auto;html=1;exitX=0;exitY=0.5;exitDx=0;exitDy=0;sketch=1;curveFitting=1;jiggle=2;fontFamily=Gloria Hallelujah;entryX=0.98;entryY=0.325;entryDx=0;entryDy=0;entryPerimeter=0;fontSource=https%3A%2F%2Ffonts.googleapis.com%2Fcss%3Ffamily%3DGloria%2BHallelujah;fontSize=13;" edge="1" parent="VgbTZJyo0fbsDSGsg5zc-1" target="VgbTZJyo0fbsDSGsg5zc-11">
          <mxGeometry relative="1" as="geometry">
            <mxPoint x="501" y="438" as="sourcePoint" />
            <mxPoint x="455" y="481.5" as="targetPoint" />
          </mxGeometry>
        </mxCell>
        <mxCell id="VgbTZJyo0fbsDSGsg5zc-11" value="" style="rounded=1;whiteSpace=wrap;html=1;fillColor=#f5f5f5;fontColor=#333333;strokeColor=#666666;sketch=1;curveFitting=1;jiggle=2;fontFamily=Gloria Hallelujah;fontSource=https%3A%2F%2Ffonts.googleapis.com%2Fcss%3Ffamily%3DGloria%2BHallelujah;fontSize=13;" vertex="1" parent="VgbTZJyo0fbsDSGsg5zc-1">
          <mxGeometry x="257" y="392" width="100" height="220" as="geometry" />
        </mxCell>
        <mxCell id="VgbTZJyo0fbsDSGsg5zc-12" value="" style="line;strokeWidth=2;html=1;rounded=1;shadow=0;strokeColor=#808080;align=center;verticalAlign=middle;fontFamily=Gloria Hallelujah;fontSize=13;fontColor=default;fillColor=#e1d5e7;dashed=1;fontSource=https%3A%2F%2Ffonts.googleapis.com%2Fcss%3Ffamily%3DGloria%2BHallelujah;" vertex="1" parent="VgbTZJyo0fbsDSGsg5zc-1">
          <mxGeometry x="249" y="342" width="540" height="11.25" as="geometry" />
        </mxCell>
        <mxCell id="VgbTZJyo0fbsDSGsg5zc-13" style="edgeStyle=orthogonalEdgeStyle;curved=1;rounded=0;sketch=1;jiggle=2;curveFitting=1;orthogonalLoop=1;jettySize=auto;html=1;exitX=0.75;exitY=0.1;exitDx=0;exitDy=0;exitPerimeter=0;strokeColor=default;align=center;verticalAlign=middle;fontFamily=Gloria Hallelujah;fontSize=13;fontColor=default;labelBackgroundColor=default;endArrow=classic;fontSource=https%3A%2F%2Ffonts.googleapis.com%2Fcss%3Ffamily%3DGloria%2BHallelujah;" edge="1" parent="VgbTZJyo0fbsDSGsg5zc-1" source="VgbTZJyo0fbsDSGsg5zc-14" target="VgbTZJyo0fbsDSGsg5zc-64">
          <mxGeometry relative="1" as="geometry">
            <mxPoint x="283" y="486" as="targetPoint" />
          </mxGeometry>
        </mxCell>
        <mxCell id="VgbTZJyo0fbsDSGsg5zc-14" value="Application Users" style="shape=umlActor;verticalLabelPosition=bottom;verticalAlign=top;html=1;outlineConnect=0;rounded=1;shadow=1;sketch=1;jiggle=2;curveFitting=1;strokeColor=#1A1A1A;align=center;fontFamily=Gloria Hallelujah;fontSize=13;fontColor=default;fillColor=#e1d5e7;fontSource=https%3A%2F%2Ffonts.googleapis.com%2Fcss%3Ffamily%3DGloria%2BHallelujah;" vertex="1" parent="VgbTZJyo0fbsDSGsg5zc-1">
          <mxGeometry x="123" y="422" width="30" height="60" as="geometry" />
        </mxCell>
        <mxCell id="VgbTZJyo0fbsDSGsg5zc-15" value="" style="rounded=1;whiteSpace=wrap;html=1;fillColor=#fff2cc;strokeColor=#d6b656;sketch=1;curveFitting=1;jiggle=2;fontFamily=Gloria Hallelujah;fontSource=https%3A%2F%2Ffonts.googleapis.com%2Fcss%3Ffamily%3DGloria%2BHallelujah;fontSize=13;" vertex="1" parent="VgbTZJyo0fbsDSGsg5zc-1">
          <mxGeometry x="389" y="222" width="210" height="90" as="geometry" />
        </mxCell>
        <mxCell id="VgbTZJyo0fbsDSGsg5zc-16" style="edgeStyle=orthogonalEdgeStyle;curved=1;rounded=0;orthogonalLoop=1;jettySize=auto;html=1;exitX=-0.086;exitY=0.314;exitDx=0;exitDy=0;exitPerimeter=0;strokeColor=#FF8000;align=center;verticalAlign=middle;fontFamily=Gloria Hallelujah;fontSize=13;fontColor=default;labelBackgroundColor=default;endArrow=classic;fontSource=https%3A%2F%2Ffonts.googleapis.com%2Fcss%3Ffamily%3DGloria%2BHallelujah;flowAnimation=1;strokeWidth=2;" edge="1" parent="VgbTZJyo0fbsDSGsg5zc-1" source="VgbTZJyo0fbsDSGsg5zc-66" target="VgbTZJyo0fbsDSGsg5zc-65">
          <mxGeometry relative="1" as="geometry">
            <mxPoint x="475" y="261" as="sourcePoint" />
            <mxPoint x="302.3299999999999" y="290" as="targetPoint" />
          </mxGeometry>
        </mxCell>
        <mxCell id="VgbTZJyo0fbsDSGsg5zc-17" value="" style="rounded=1;whiteSpace=wrap;html=1;fillColor=#f5f5f5;fontColor=#333333;strokeColor=#666666;sketch=1;curveFitting=1;jiggle=2;fontFamily=Gloria Hallelujah;fontSource=https%3A%2F%2Ffonts.googleapis.com%2Fcss%3Ffamily%3DGloria%2BHallelujah;fontSize=13;" vertex="1" parent="VgbTZJyo0fbsDSGsg5zc-1">
          <mxGeometry x="499" y="392" width="210" height="90" as="geometry" />
        </mxCell>
        <mxCell id="VgbTZJyo0fbsDSGsg5zc-18" value="Cloud Workload&lt;div style=&quot;font-size: 13px;&quot;&gt;Scanning Results&lt;/div&gt;&lt;div style=&quot;font-size: 13px;&quot;&gt;上傳掃瞄結果&lt;br&gt;&lt;/div&gt;" style="edgeStyle=orthogonalEdgeStyle;curved=1;rounded=0;orthogonalLoop=1;jettySize=auto;html=1;strokeColor=#FF8000;align=center;verticalAlign=middle;fontFamily=Gloria Hallelujah;fontSize=13;fontColor=default;labelBackgroundColor=default;endArrow=classic;entryX=1;entryY=0.5;entryDx=0;entryDy=0;flowAnimation=1;dashed=1;strokeWidth=2;fontSource=https%3A%2F%2Ffonts.googleapis.com%2Fcss%3Ffamily%3DGloria%2BHallelujah;exitX=-0.05;exitY=0.484;exitDx=0;exitDy=0;exitPerimeter=0;" edge="1" parent="VgbTZJyo0fbsDSGsg5zc-1" source="VgbTZJyo0fbsDSGsg5zc-65" target="VgbTZJyo0fbsDSGsg5zc-5">
          <mxGeometry x="0.1502" y="-15" relative="1" as="geometry">
            <mxPoint x="264" y="290" as="sourcePoint" />
            <mxPoint x="49" y="347" as="targetPoint" />
            <mxPoint as="offset" />
            <Array as="points">
              <mxPoint x="285" y="290" />
              <mxPoint x="182" y="290" />
              <mxPoint x="182" y="380" />
            </Array>
          </mxGeometry>
        </mxCell>
        <mxCell id="VgbTZJyo0fbsDSGsg5zc-19" value="&lt;ul style=&quot;font-size: 13px;&quot;&gt;&lt;li&gt;Vulnerability 弱掃&lt;/li&gt;&lt;li&gt;Compliance 合規檢查&lt;/li&gt;&lt;li&gt;Embedded Secret 內嵌密碼&lt;/li&gt;&lt;li&gt;Malware 惡意程式掃描&lt;/li&gt;&lt;/ul&gt;" style="edgeStyle=orthogonalEdgeStyle;curved=1;rounded=0;orthogonalLoop=1;jettySize=auto;html=1;exitX=0.5;exitY=0;exitDx=0;exitDy=0;entryX=1.019;entryY=0.291;entryDx=0;entryDy=0;entryPerimeter=0;strokeColor=#FF8000;align=left;verticalAlign=middle;fontFamily=Gloria Hallelujah;fontSize=13;fontColor=default;labelBackgroundColor=none;endArrow=classic;fontSource=https%3A%2F%2Ffonts.googleapis.com%2Fcss%3Ffamily%3DGloria%2BHallelujah;flowAnimation=1;strokeWidth=2;" edge="1" parent="VgbTZJyo0fbsDSGsg5zc-1" source="VgbTZJyo0fbsDSGsg5zc-71" target="VgbTZJyo0fbsDSGsg5zc-66">
          <mxGeometry x="0.087" relative="1" as="geometry">
            <mxPoint as="offset" />
            <mxPoint x="629" y="357" as="sourcePoint" />
            <mxPoint x="513" y="261" as="targetPoint" />
          </mxGeometry>
        </mxCell>
        <mxCell id="VgbTZJyo0fbsDSGsg5zc-20" value="Mount &amp;amp; Scan" style="text;html=1;align=center;verticalAlign=middle;whiteSpace=wrap;rounded=0;fontFamily=Gloria Hallelujah;fontSize=13;fontColor=default;fontSource=https%3A%2F%2Ffonts.googleapis.com%2Fcss%3Ffamily%3DGloria%2BHallelujah;" vertex="1" parent="VgbTZJyo0fbsDSGsg5zc-1">
          <mxGeometry x="619" y="312" width="118" height="30" as="geometry" />
        </mxCell>
        <mxCell id="VgbTZJyo0fbsDSGsg5zc-21" value="" style="group;fontSize=13;fontFamily=Gloria Hallelujah;fontSource=https%3A%2F%2Ffonts.googleapis.com%2Fcss%3Ffamily%3DGloria%2BHallelujah;" vertex="1" connectable="0" parent="VgbTZJyo0fbsDSGsg5zc-1">
          <mxGeometry x="737" y="287" width="57.14" height="50" as="geometry" />
        </mxCell>
        <mxCell id="VgbTZJyo0fbsDSGsg5zc-22" value="" style="curved=1;endArrow=classic;html=1;rounded=0;sketch=1;jiggle=2;curveFitting=1;strokeColor=default;align=center;verticalAlign=middle;fontFamily=Gloria Hallelujah;fontSize=13;fontColor=default;labelBackgroundColor=default;edgeStyle=orthogonalEdgeStyle;fontSource=https%3A%2F%2Ffonts.googleapis.com%2Fcss%3Ffamily%3DGloria%2BHallelujah;" edge="1" parent="VgbTZJyo0fbsDSGsg5zc-21">
          <mxGeometry width="50" height="50" relative="1" as="geometry">
            <mxPoint x="21.427500000000002" y="50" as="sourcePoint" />
            <mxPoint x="57.14" y="14.285714285714286" as="targetPoint" />
            <Array as="points">
              <mxPoint x="57.14" y="50" />
              <mxPoint x="21.427500000000002" y="14.285714285714286" />
            </Array>
          </mxGeometry>
        </mxCell>
        <mxCell id="VgbTZJyo0fbsDSGsg5zc-23" value="" style="curved=1;endArrow=classic;html=1;rounded=0;sketch=1;jiggle=2;curveFitting=1;strokeColor=default;align=center;verticalAlign=middle;fontFamily=Gloria Hallelujah;fontSize=13;fontColor=default;labelBackgroundColor=default;edgeStyle=orthogonalEdgeStyle;fontSource=https%3A%2F%2Ffonts.googleapis.com%2Fcss%3Ffamily%3DGloria%2BHallelujah;" edge="1" parent="VgbTZJyo0fbsDSGsg5zc-21">
          <mxGeometry width="50" height="50" relative="1" as="geometry">
            <mxPoint x="35.712500000000006" as="sourcePoint" />
            <mxPoint y="35.714285714285715" as="targetPoint" />
            <Array as="points">
              <mxPoint />
              <mxPoint x="35.712500000000006" y="35.714285714285715" />
            </Array>
          </mxGeometry>
        </mxCell>
        <mxCell id="VgbTZJyo0fbsDSGsg5zc-24" value="24&lt;div style=&quot;font-size: 13px;&quot;&gt;Hours&lt;/div&gt;" style="text;html=1;align=center;verticalAlign=middle;whiteSpace=wrap;rounded=0;fontFamily=Gloria Hallelujah;fontSize=13;fontColor=default;fontSource=https%3A%2F%2Ffonts.googleapis.com%2Fcss%3Ffamily%3DGloria%2BHallelujah;" vertex="1" parent="VgbTZJyo0fbsDSGsg5zc-21">
          <mxGeometry x="7.1425" y="14.285714285714286" width="42.855000000000004" height="21.42857142857143" as="geometry" />
        </mxCell>
        <mxCell id="VgbTZJyo0fbsDSGsg5zc-25" value="PaaS" style="rounded=1;whiteSpace=wrap;html=1;fillColor=#f5f5f5;fontColor=#333333;strokeColor=#666666;sketch=1;curveFitting=1;jiggle=2;fontFamily=Gloria Hallelujah;fontSource=https%3A%2F%2Ffonts.googleapis.com%2Fcss%3Ffamily%3DGloria%2BHallelujah;fontSize=13;" vertex="1" parent="VgbTZJyo0fbsDSGsg5zc-1">
          <mxGeometry x="729" y="392" width="72" height="210" as="geometry" />
        </mxCell>
        <mxCell id="VgbTZJyo0fbsDSGsg5zc-26" value="ENtraID" style="rounded=1;whiteSpace=wrap;html=1;fillColor=#f5f5f5;fontColor=#333333;strokeColor=#666666;sketch=1;curveFitting=1;jiggle=2;fontFamily=Gloria Hallelujah;fontSource=https%3A%2F%2Ffonts.googleapis.com%2Fcss%3Ffamily%3DGloria%2BHallelujah;fontSize=13;" vertex="1" parent="VgbTZJyo0fbsDSGsg5zc-1">
          <mxGeometry x="729.57" y="612" width="72" height="30" as="geometry" />
        </mxCell>
        <mxCell id="VgbTZJyo0fbsDSGsg5zc-27" style="edgeStyle=orthogonalEdgeStyle;curved=1;rounded=0;hachureGap=4;orthogonalLoop=1;jettySize=auto;html=1;strokeColor=#000000;strokeWidth=1;align=center;verticalAlign=middle;fontFamily=Architects Daughter;fontSource=https%3A%2F%2Ffonts.googleapis.com%2Fcss%3Ffamily%3DArchitects%2BDaughter;fontSize=11;fontColor=default;labelBackgroundColor=default;endArrow=classic;flowAnimation=0;sketch=1;curveFitting=1;jiggle=2;" edge="1" parent="VgbTZJyo0fbsDSGsg5zc-1" source="VgbTZJyo0fbsDSGsg5zc-28">
          <mxGeometry relative="1" as="geometry">
            <mxPoint x="275.5" y="195.5" as="targetPoint" />
          </mxGeometry>
        </mxCell>
        <mxCell id="VgbTZJyo0fbsDSGsg5zc-28" value="&lt;span style=&quot;font-size: 18px;&quot;&gt;Whitelisting Public IP From Prisma Cloud&lt;/span&gt;&lt;div style=&quot;font-size: 18px;&quot;&gt;把Prisma Cloud公用IP加入白名單&lt;/div&gt;" style="text;html=1;align=center;verticalAlign=middle;whiteSpace=wrap;rounded=0;fontFamily=Gloria Hallelujah;fontSource=https%3A%2F%2Ffonts.googleapis.com%2Fcss%3Ffamily%3DGloria%2BHallelujah;fontSize=13;" vertex="1" parent="VgbTZJyo0fbsDSGsg5zc-1">
          <mxGeometry x="311" y="126" width="372" height="30" as="geometry" />
        </mxCell>
        <mxCell id="VgbTZJyo0fbsDSGsg5zc-29" value="Azure Enterprise&lt;div&gt;Application&lt;/div&gt;" style="shape=umlActor;verticalLabelPosition=bottom;verticalAlign=top;html=1;outlineConnect=0;sketch=1;hachureGap=4;jiggle=2;curveFitting=1;fontFamily=Architects Daughter;fontSource=https%3A%2F%2Ffonts.googleapis.com%2Fcss%3Ffamily%3DArchitects%2BDaughter;fontSize=13;" vertex="1" parent="VgbTZJyo0fbsDSGsg5zc-1">
          <mxGeometry x="-177" y="206" width="20" height="41" as="geometry" />
        </mxCell>
        <mxCell id="VgbTZJyo0fbsDSGsg5zc-30" value="&lt;span style=&quot;font-size: 17px;&quot;&gt;Whitelisting 開放白名單&lt;/span&gt;" style="text;html=1;align=center;verticalAlign=middle;whiteSpace=wrap;rounded=0;fontFamily=Gloria Hallelujah;fontSource=https%3A%2F%2Ffonts.googleapis.com%2Fcss%3Ffamily%3DGloria%2BHallelujah;fontSize=13;" vertex="1" parent="VgbTZJyo0fbsDSGsg5zc-1">
          <mxGeometry x="276" y="622" width="106" height="30" as="geometry" />
        </mxCell>
        <mxCell id="VgbTZJyo0fbsDSGsg5zc-31" value="Terraform Script" style="edgeStyle=orthogonalEdgeStyle;rounded=0;hachureGap=4;orthogonalLoop=1;jettySize=auto;html=1;entryX=0.5;entryY=0;entryDx=0;entryDy=0;fontFamily=Architects Daughter;fontSource=https%3A%2F%2Ffonts.googleapis.com%2Fcss%3Ffamily%3DArchitects%2BDaughter;curved=1;flowAnimation=1;exitX=0.5;exitY=0;exitDx=0;exitDy=0;strokeWidth=2;strokeColor=#00CC00;fontSize=13;" edge="1" parent="VgbTZJyo0fbsDSGsg5zc-1" source="VgbTZJyo0fbsDSGsg5zc-32">
          <mxGeometry x="-0.003" relative="1" as="geometry">
            <Array as="points">
              <mxPoint x="-419" y="101" />
              <mxPoint x="253" y="101" />
            </Array>
            <mxPoint as="offset" />
            <mxPoint x="252.85500000000002" y="202" as="targetPoint" />
          </mxGeometry>
        </mxCell>
        <mxCell id="VgbTZJyo0fbsDSGsg5zc-32" value="&lt;div style=&quot;font-size: 13px;&quot;&gt;Terraform&lt;/div&gt;&lt;div style=&quot;font-size: 13px;&quot;&gt;Template&lt;br&gt;For Creating Role&lt;/div&gt;" style="shape=document;whiteSpace=wrap;html=1;boundedLbl=1;sketch=1;hachureGap=4;jiggle=2;curveFitting=1;fontFamily=Architects Daughter;fontSource=https%3A%2F%2Ffonts.googleapis.com%2Fcss%3Ffamily%3DArchitects%2BDaughter;fontSize=13;fillColor=#fff2cc;strokeColor=#d6b656;" vertex="1" parent="VgbTZJyo0fbsDSGsg5zc-1">
          <mxGeometry x="-479" y="307" width="120" height="80" as="geometry" />
        </mxCell>
        <mxCell id="VgbTZJyo0fbsDSGsg5zc-33" value="Generate" style="edgeStyle=orthogonalEdgeStyle;rounded=0;hachureGap=4;orthogonalLoop=1;jettySize=auto;html=1;entryX=1.001;entryY=0.319;entryDx=0;entryDy=0;entryPerimeter=0;fontFamily=Architects Daughter;fontSource=https%3A%2F%2Ffonts.googleapis.com%2Fcss%3Ffamily%3DArchitects%2BDaughter;flowAnimation=1;curved=1;strokeWidth=2;strokeColor=#00CC00;fontSize=13;" edge="1" parent="VgbTZJyo0fbsDSGsg5zc-1" source="VgbTZJyo0fbsDSGsg5zc-5" target="VgbTZJyo0fbsDSGsg5zc-32">
          <mxGeometry relative="1" as="geometry" />
        </mxCell>
        <mxCell id="VgbTZJyo0fbsDSGsg5zc-34" value="&lt;span style=&quot;color: rgb(0, 0, 0); font-family: &amp;quot;Architects Daughter&amp;quot;; font-size: 13px; font-style: normal; font-variant-ligatures: normal; font-variant-caps: normal; font-weight: 400; letter-spacing: normal; orphans: 2; text-align: center; text-indent: 0px; text-transform: none; widows: 2; word-spacing: 0px; -webkit-text-stroke-width: 0px; white-space: normal; text-decoration-thickness: initial; text-decoration-style: initial; text-decoration-color: initial; float: none; display: inline !important;&quot;&gt;Prisma Cloud&lt;/span&gt;&lt;div style=&quot;forced-color-adjust: none; color: rgb(0, 0, 0); font-family: &amp;quot;Architects Daughter&amp;quot;; font-size: 13px; font-style: normal; font-variant-ligatures: normal; font-variant-caps: normal; font-weight: 400; letter-spacing: normal; orphans: 2; text-align: center; text-indent: 0px; text-transform: none; widows: 2; word-spacing: 0px; -webkit-text-stroke-width: 0px; white-space: normal; text-decoration-thickness: initial; text-decoration-style: initial; text-decoration-color: initial;&quot;&gt;Readonly&lt;/div&gt;" style="shape=callout;whiteSpace=wrap;html=1;perimeter=calloutPerimeter;sketch=1;hachureGap=4;jiggle=2;curveFitting=1;fontFamily=Architects Daughter;fontSource=https%3A%2F%2Ffonts.googleapis.com%2Fcss%3Ffamily%3DArchitects%2BDaughter;fontSize=13;labelBackgroundColor=none;position2=0.74;fillColor=#fff2cc;gradientColor=#ffd966;strokeColor=#d6b656;" vertex="1" parent="VgbTZJyo0fbsDSGsg5zc-1">
          <mxGeometry x="-231" y="135" width="120" height="78" as="geometry" />
        </mxCell>
        <mxCell id="VgbTZJyo0fbsDSGsg5zc-35" value="Tenant ID&lt;div&gt;Subscription ID&lt;/div&gt;" style="shape=callout;whiteSpace=wrap;html=1;perimeter=calloutPerimeter;sketch=1;hachureGap=4;jiggle=2;curveFitting=1;fontFamily=Architects Daughter;fontSource=https%3A%2F%2Ffonts.googleapis.com%2Fcss%3Ffamily%3DArchitects%2BDaughter;fontSize=13;labelBackgroundColor=none;position2=0.39;fillColor=#fff2cc;gradientColor=#ffd966;strokeColor=#d6b656;" vertex="1" parent="VgbTZJyo0fbsDSGsg5zc-1">
          <mxGeometry x="-357" y="251" width="120" height="78" as="geometry" />
        </mxCell>
        <mxCell id="VgbTZJyo0fbsDSGsg5zc-36" value="Azure&lt;div&gt;Global Admin&lt;/div&gt;" style="shape=umlActor;verticalLabelPosition=bottom;verticalAlign=top;html=1;outlineConnect=0;sketch=1;hachureGap=4;jiggle=2;curveFitting=1;fontFamily=Architects Daughter;fontSource=https%3A%2F%2Ffonts.googleapis.com%2Fcss%3Ffamily%3DArchitects%2BDaughter;fontSize=13;fontColor=default;labelBackgroundColor=default;" vertex="1" parent="VgbTZJyo0fbsDSGsg5zc-1">
          <mxGeometry x="-194" y="-6" width="25" height="49" as="geometry" />
        </mxCell>
        <mxCell id="VgbTZJyo0fbsDSGsg5zc-38" value="CMDB" style="shape=cylinder3;whiteSpace=wrap;html=1;boundedLbl=1;backgroundOutline=1;size=15;sketch=1;hachureGap=4;jiggle=2;curveFitting=1;fontFamily=Architects Daughter;fontSource=https%3A%2F%2Ffonts.googleapis.com%2Fcss%3Ffamily%3DArchitects%2BDaughter;fontSize=13;labelBackgroundColor=none;fillColor=#f5f5f5;strokeColor=#666666;gradientColor=#b3b3b3;" vertex="1" parent="VgbTZJyo0fbsDSGsg5zc-1">
          <mxGeometry x="-220" y="391" width="60" height="65" as="geometry" />
        </mxCell>
        <mxCell id="VgbTZJyo0fbsDSGsg5zc-39" value="Store&lt;div style=&quot;font-size: 13px;&quot;&gt;Configuration&lt;/div&gt;" style="edgeStyle=orthogonalEdgeStyle;curved=1;rounded=0;hachureGap=4;orthogonalLoop=1;jettySize=auto;html=1;exitX=0.5;exitY=1;exitDx=0;exitDy=0;entryX=0.5;entryY=1;entryDx=0;entryDy=0;entryPerimeter=0;strokeColor=#666666;strokeWidth=2;align=center;verticalAlign=middle;fontFamily=Architects Daughter;fontSource=https%3A%2F%2Ffonts.googleapis.com%2Fcss%3Ffamily%3DArchitects%2BDaughter;fontSize=13;fontColor=default;labelBackgroundColor=default;endArrow=classic;flowAnimation=1;dashed=1;dashPattern=1 2;" edge="1" parent="VgbTZJyo0fbsDSGsg5zc-1" source="VgbTZJyo0fbsDSGsg5zc-5" target="VgbTZJyo0fbsDSGsg5zc-38">
          <mxGeometry x="-0.5319" y="-4" relative="1" as="geometry">
            <Array as="points">
              <mxPoint x="-121" y="497" />
              <mxPoint x="-190" y="497" />
            </Array>
            <mxPoint as="offset" />
          </mxGeometry>
        </mxCell>
        <mxCell id="VgbTZJyo0fbsDSGsg5zc-40" value="&lt;span style=&quot;font-size: 17px;&quot;&gt;Network Flog Logs&lt;/span&gt;&lt;div style=&quot;font-size: 17px;&quot;&gt;Collection &amp;amp; Analysis&lt;/div&gt;&lt;div style=&quot;font-size: 17px;&quot;&gt;網路異常作為分析&lt;/div&gt;" style="edgeStyle=orthogonalEdgeStyle;curved=1;rounded=0;orthogonalLoop=1;jettySize=auto;html=1;exitX=0.75;exitY=1;exitDx=0;exitDy=0;strokeColor=#0000FF;strokeWidth=2;align=center;verticalAlign=middle;fontFamily=Gloria Hallelujah;fontSource=https%3A%2F%2Ffonts.googleapis.com%2Fcss%3Ffamily%3DGloria%2BHallelujah;fontSize=13;fontColor=default;labelBackgroundColor=default;endArrow=classic;flowAnimation=1;dashed=1;dashPattern=1 4;entryX=0.015;entryY=0.375;entryDx=0;entryDy=0;entryPerimeter=0;" edge="1" parent="VgbTZJyo0fbsDSGsg5zc-1" source="VgbTZJyo0fbsDSGsg5zc-5" target="VgbTZJyo0fbsDSGsg5zc-60">
          <mxGeometry x="0.1198" y="80" relative="1" as="geometry">
            <mxPoint x="1" as="offset" />
            <mxPoint x="155" y="704" as="targetPoint" />
          </mxGeometry>
        </mxCell>
        <mxCell id="VgbTZJyo0fbsDSGsg5zc-41" style="edgeStyle=orthogonalEdgeStyle;curved=1;rounded=0;hachureGap=4;orthogonalLoop=1;jettySize=auto;html=1;exitX=0;exitY=0.75;exitDx=0;exitDy=0;exitPerimeter=0;strokeColor=#808080;strokeWidth=2;align=center;verticalAlign=middle;fontFamily=Architects Daughter;fontSource=https%3A%2F%2Ffonts.googleapis.com%2Fcss%3Ffamily%3DArchitects%2BDaughter;fontSize=11;fontColor=default;labelBackgroundColor=default;endArrow=classic;flowAnimation=1;" edge="1" parent="VgbTZJyo0fbsDSGsg5zc-1">
          <mxGeometry relative="1" as="geometry">
            <mxPoint x="-136.5" y="93.5" as="targetPoint" />
            <mxPoint x="-98" y="29.5" as="sourcePoint" />
          </mxGeometry>
        </mxCell>
        <mxCell id="VgbTZJyo0fbsDSGsg5zc-42" style="edgeStyle=orthogonalEdgeStyle;curved=1;rounded=0;hachureGap=4;orthogonalLoop=1;jettySize=auto;html=1;exitX=0.5;exitY=0.5;exitDx=0;exitDy=0;exitPerimeter=0;entryX=0;entryY=0.5;entryDx=0;entryDy=0;entryPerimeter=0;strokeColor=#808080;strokeWidth=2;align=center;verticalAlign=middle;fontFamily=Architects Daughter;fontSource=https%3A%2F%2Ffonts.googleapis.com%2Fcss%3Ffamily%3DArchitects%2BDaughter;fontSize=11;fontColor=default;labelBackgroundColor=default;endArrow=classic;flowAnimation=1;" edge="1" parent="VgbTZJyo0fbsDSGsg5zc-1" source="VgbTZJyo0fbsDSGsg5zc-36">
          <mxGeometry relative="1" as="geometry">
            <mxPoint x="-98" y="18" as="targetPoint" />
          </mxGeometry>
        </mxCell>
        <mxCell id="VgbTZJyo0fbsDSGsg5zc-43" value="1" style="ellipse;whiteSpace=wrap;html=1;aspect=fixed;sketch=1;hachureGap=4;jiggle=2;curveFitting=1;fontFamily=Gloria Hallelujah;fontSource=https%3A%2F%2Ffonts.googleapis.com%2Fcss%3Ffamily%3DGloria%2BHallelujah;fontSize=16;labelBackgroundColor=none;fillColor=#d5e8d4;strokeColor=#82b366;gradientColor=#97d077;" vertex="1" parent="VgbTZJyo0fbsDSGsg5zc-1">
          <mxGeometry x="27" y="36" width="51" height="51" as="geometry" />
        </mxCell>
        <mxCell id="VgbTZJyo0fbsDSGsg5zc-44" value="&lt;span style=&quot;font-size: 17px; text-align: left;&quot;&gt;Creating Collection Account&lt;/span&gt;&lt;div style=&quot;font-size: 17px; text-align: left;&quot;&gt;建立 POV 所需的用戶及權限&lt;/div&gt;" style="text;html=1;align=center;verticalAlign=middle;whiteSpace=wrap;rounded=0;fontFamily=Gloria Hallelujah;fontSource=https%3A%2F%2Ffonts.googleapis.com%2Fcss%3Ffamily%3DGloria%2BHallelujah;fontSize=13;fontColor=default;labelBackgroundColor=default;" vertex="1" parent="VgbTZJyo0fbsDSGsg5zc-1">
          <mxGeometry x="83" y="47" width="253" height="30" as="geometry" />
        </mxCell>
        <mxCell id="VgbTZJyo0fbsDSGsg5zc-45" value="2" style="ellipse;whiteSpace=wrap;html=1;aspect=fixed;sketch=1;hachureGap=4;jiggle=2;curveFitting=1;fontFamily=Gloria Hallelujah;fontSource=https%3A%2F%2Ffonts.googleapis.com%2Fcss%3Ffamily%3DGloria%2BHallelujah;fontSize=16;labelBackgroundColor=none;fillColor=#d5e8d4;strokeColor=#82b366;gradientColor=#97d077;" vertex="1" parent="VgbTZJyo0fbsDSGsg5zc-1">
          <mxGeometry x="-71" y="251" width="51" height="51" as="geometry" />
        </mxCell>
        <mxCell id="VgbTZJyo0fbsDSGsg5zc-46" value="3" style="ellipse;whiteSpace=wrap;html=1;aspect=fixed;sketch=1;hachureGap=4;jiggle=2;curveFitting=1;fontFamily=Gloria Hallelujah;fontSource=https%3A%2F%2Ffonts.googleapis.com%2Fcss%3Ffamily%3DGloria%2BHallelujah;fontSize=16;labelBackgroundColor=none;fillColor=#ffcd28;strokeColor=#d79b00;gradientColor=#ffa500;" vertex="1" parent="VgbTZJyo0fbsDSGsg5zc-1">
          <mxGeometry x="-119" y="573" width="51" height="51" as="geometry" />
        </mxCell>
        <mxCell id="VgbTZJyo0fbsDSGsg5zc-47" value="4" style="ellipse;whiteSpace=wrap;html=1;aspect=fixed;sketch=1;hachureGap=4;jiggle=2;curveFitting=1;fontFamily=Gloria Hallelujah;fontSource=https%3A%2F%2Ffonts.googleapis.com%2Fcss%3Ffamily%3DGloria%2BHallelujah;fontSize=16;labelBackgroundColor=none;fillColor=#ffcd28;strokeColor=#d79b00;gradientColor=#ffa500;" vertex="1" parent="VgbTZJyo0fbsDSGsg5zc-1">
          <mxGeometry x="652" y="149" width="51" height="51" as="geometry" />
        </mxCell>
        <mxCell id="VgbTZJyo0fbsDSGsg5zc-48" value="" style="shape=image;imageAspect=0;aspect=fixed;verticalLabelPosition=bottom;verticalAlign=top;rounded=0;align=center;fontFamily=Gloria Hallelujah;fontSource=https%3A%2F%2Ffonts.googleapis.com%2Fcss%3Ffamily%3DGloria%2BHallelujah;fontSize=13;fontColor=default;labelBackgroundColor=default;fillColor=none;gradientColor=none;image=https://images.crunchbase.com/image/upload/c_pad,f_auto,q_auto:eco,dpr_1/rfuwf3yqq2cermkmrej6;" vertex="1" parent="VgbTZJyo0fbsDSGsg5zc-1">
          <mxGeometry x="-82" y="349" width="49.11" height="64" as="geometry" />
        </mxCell>
        <mxCell id="VgbTZJyo0fbsDSGsg5zc-57" value="" style="shape=image;verticalLabelPosition=bottom;labelBackgroundColor=default;verticalAlign=top;aspect=fixed;imageAspect=0;image=https://blogs.vmware.com/cloudprovider/files/2019/04/og-image-8b3e4f7d-blog-aspect-ratio.png;" vertex="1" parent="VgbTZJyo0fbsDSGsg5zc-1">
          <mxGeometry x="-124" y="-22" width="97.3" height="73" as="geometry" />
        </mxCell>
        <mxCell id="VgbTZJyo0fbsDSGsg5zc-58" value="" style="shape=image;verticalLabelPosition=bottom;labelBackgroundColor=default;verticalAlign=top;aspect=fixed;imageAspect=0;image=https://blogs.vmware.com/cloudprovider/files/2019/04/og-image-8b3e4f7d-blog-aspect-ratio.png;" vertex="1" parent="VgbTZJyo0fbsDSGsg5zc-1">
          <mxGeometry x="-513" y="279" width="61.31" height="46" as="geometry" />
        </mxCell>
        <mxCell id="VgbTZJyo0fbsDSGsg5zc-59" value="" style="shape=image;verticalLabelPosition=bottom;labelBackgroundColor=default;verticalAlign=top;aspect=fixed;imageAspect=0;image=https://swimburger.net/media/ppnn3pcl/azure.png;" vertex="1" parent="VgbTZJyo0fbsDSGsg5zc-1">
          <mxGeometry x="234" y="203" width="47" height="47" as="geometry" />
        </mxCell>
        <mxCell id="VgbTZJyo0fbsDSGsg5zc-60" value="Storage&lt;div&gt;Account&lt;/div&gt;&lt;div&gt;(Flow logs)&lt;/div&gt;" style="image;aspect=fixed;html=1;points=[];align=center;fontSize=12;image=img/lib/azure2/storage/Storage_Accounts.svg;sketch=1;hachureGap=4;jiggle=2;curveFitting=1;fontFamily=Architects Daughter;fontSource=https%3A%2F%2Ffonts.googleapis.com%2Fcss%3Ffamily%3DArchitects%2BDaughter;fontColor=default;labelBackgroundColor=default;" vertex="1" parent="VgbTZJyo0fbsDSGsg5zc-1">
          <mxGeometry x="295" y="661" width="65" height="52" as="geometry" />
        </mxCell>
        <mxCell id="VgbTZJyo0fbsDSGsg5zc-61" value="" style="image;aspect=fixed;html=1;points=[];align=center;fontSize=12;image=img/lib/azure2/networking/Virtual_Networks.svg;sketch=1;hachureGap=4;jiggle=2;curveFitting=1;fontFamily=Architects Daughter;fontSource=https%3A%2F%2Ffonts.googleapis.com%2Fcss%3Ffamily%3DArchitects%2BDaughter;fontColor=default;labelBackgroundColor=default;" vertex="1" parent="VgbTZJyo0fbsDSGsg5zc-1">
          <mxGeometry x="263" y="400" width="30.15" height="18" as="geometry" />
        </mxCell>
        <mxCell id="VgbTZJyo0fbsDSGsg5zc-62" value="" style="image;aspect=fixed;html=1;points=[];align=center;fontSize=12;image=img/lib/azure2/networking/Virtual_Networks.svg;sketch=1;hachureGap=4;jiggle=2;curveFitting=1;fontFamily=Architects Daughter;fontSource=https%3A%2F%2Ffonts.googleapis.com%2Fcss%3Ffamily%3DArchitects%2BDaughter;fontColor=default;labelBackgroundColor=default;" vertex="1" parent="VgbTZJyo0fbsDSGsg5zc-1">
          <mxGeometry x="502" y="397" width="30.15" height="18" as="geometry" />
        </mxCell>
        <mxCell id="VgbTZJyo0fbsDSGsg5zc-63" value="" style="image;aspect=fixed;html=1;points=[];align=center;fontSize=12;image=img/lib/azure2/networking/Virtual_Networks.svg;sketch=1;hachureGap=4;jiggle=2;curveFitting=1;fontFamily=Architects Daughter;fontSource=https%3A%2F%2Ffonts.googleapis.com%2Fcss%3Ffamily%3DArchitects%2BDaughter;fontColor=default;labelBackgroundColor=default;" vertex="1" parent="VgbTZJyo0fbsDSGsg5zc-1">
          <mxGeometry x="505" y="518" width="30.15" height="18" as="geometry" />
        </mxCell>
        <mxCell id="VgbTZJyo0fbsDSGsg5zc-64" value="Network&lt;div&gt;Load&lt;/div&gt;&lt;div&gt;Balanacer&lt;/div&gt;" style="image;sketch=0;aspect=fixed;html=1;points=[];align=center;fontSize=12;image=img/lib/mscae/Load_Balancer_feature.svg;hachureGap=4;jiggle=2;curveFitting=1;fontFamily=Architects Daughter;fontSource=https%3A%2F%2Ffonts.googleapis.com%2Fcss%3Ffamily%3DArchitects%2BDaughter;fontColor=default;labelBackgroundColor=default;" vertex="1" parent="VgbTZJyo0fbsDSGsg5zc-1">
          <mxGeometry x="286" y="464" width="50" height="50" as="geometry" />
        </mxCell>
        <mxCell id="VgbTZJyo0fbsDSGsg5zc-65" value="Public IP" style="image;aspect=fixed;html=1;points=[];align=center;fontSize=12;image=img/lib/azure2/networking/Public_IP_Addresses.svg;sketch=1;hachureGap=4;jiggle=2;curveFitting=1;fontFamily=Architects Daughter;fontSource=https%3A%2F%2Ffonts.googleapis.com%2Fcss%3Ffamily%3DArchitects%2BDaughter;fontColor=default;labelBackgroundColor=default;" vertex="1" parent="VgbTZJyo0fbsDSGsg5zc-1">
          <mxGeometry x="287" y="266" width="40" height="32" as="geometry" />
        </mxCell>
        <mxCell id="VgbTZJyo0fbsDSGsg5zc-66" value="Prisma Cloud Scanner VM" style="image;aspect=fixed;html=1;points=[];align=center;fontSize=12;image=img/lib/azure2/compute/Virtual_Machine.svg;sketch=1;hachureGap=4;jiggle=2;curveFitting=1;fontFamily=Architects Daughter;fontSource=https%3A%2F%2Ffonts.googleapis.com%2Fcss%3Ffamily%3DArchitects%2BDaughter;fontColor=default;labelBackgroundColor=default;" vertex="1" parent="VgbTZJyo0fbsDSGsg5zc-1">
          <mxGeometry x="469" y="241" width="46.36" height="43" as="geometry" />
        </mxCell>
        <mxCell id="VgbTZJyo0fbsDSGsg5zc-67" value="VM" style="image;aspect=fixed;html=1;points=[];align=center;fontSize=12;image=img/lib/azure2/compute/Virtual_Machine.svg;sketch=1;hachureGap=4;jiggle=2;curveFitting=1;fontFamily=Architects Daughter;fontSource=https%3A%2F%2Ffonts.googleapis.com%2Fcss%3Ffamily%3DArchitects%2BDaughter;fontColor=default;labelBackgroundColor=default;" vertex="1" parent="VgbTZJyo0fbsDSGsg5zc-1">
          <mxGeometry x="538" y="413" width="46.36" height="43" as="geometry" />
        </mxCell>
        <mxCell id="VgbTZJyo0fbsDSGsg5zc-68" style="edgeStyle=orthogonalEdgeStyle;curved=1;rounded=0;orthogonalLoop=1;jettySize=auto;html=1;strokeColor=#FF8000;strokeWidth=2;align=left;verticalAlign=middle;fontFamily=Gloria Hallelujah;fontSource=https%3A%2F%2Ffonts.googleapis.com%2Fcss%3Ffamily%3DGloria%2BHallelujah;fontSize=13;fontColor=default;labelBackgroundColor=none;endArrow=classic;flowAnimation=1;" edge="1" parent="VgbTZJyo0fbsDSGsg5zc-1" source="VgbTZJyo0fbsDSGsg5zc-69" target="VgbTZJyo0fbsDSGsg5zc-71">
          <mxGeometry relative="1" as="geometry" />
        </mxCell>
        <mxCell id="VgbTZJyo0fbsDSGsg5zc-69" value="VM (AKS Node)" style="image;aspect=fixed;html=1;points=[];align=center;fontSize=12;image=img/lib/azure2/compute/Virtual_Machine.svg;sketch=1;hachureGap=4;jiggle=2;curveFitting=1;fontFamily=Architects Daughter;fontSource=https%3A%2F%2Ffonts.googleapis.com%2Fcss%3Ffamily%3DArchitects%2BDaughter;fontColor=default;labelBackgroundColor=default;" vertex="1" parent="VgbTZJyo0fbsDSGsg5zc-1">
          <mxGeometry x="609" y="414" width="46.36" height="43" as="geometry" />
        </mxCell>
        <mxCell id="VgbTZJyo0fbsDSGsg5zc-70" value="" style="image;aspect=fixed;html=1;points=[];align=center;fontSize=12;image=img/lib/azure2/compute/Disks_Snapshots.svg;sketch=1;hachureGap=4;jiggle=2;curveFitting=1;fontFamily=Architects Daughter;fontSource=https%3A%2F%2Ffonts.googleapis.com%2Fcss%3Ffamily%3DArchitects%2BDaughter;fontColor=default;labelBackgroundColor=default;" vertex="1" parent="VgbTZJyo0fbsDSGsg5zc-1">
          <mxGeometry x="541" y="335" width="41.18" height="43" as="geometry" />
        </mxCell>
        <mxCell id="VgbTZJyo0fbsDSGsg5zc-71" value="" style="image;aspect=fixed;html=1;points=[];align=center;fontSize=12;image=img/lib/azure2/compute/Disks_Snapshots.svg;sketch=1;hachureGap=4;jiggle=2;curveFitting=1;fontFamily=Architects Daughter;fontSource=https%3A%2F%2Ffonts.googleapis.com%2Fcss%3Ffamily%3DArchitects%2BDaughter;fontColor=default;labelBackgroundColor=default;" vertex="1" parent="VgbTZJyo0fbsDSGsg5zc-1">
          <mxGeometry x="612" y="336" width="41.18" height="43" as="geometry" />
        </mxCell>
        <mxCell id="VgbTZJyo0fbsDSGsg5zc-72" value="Function&lt;div&gt;App&lt;/div&gt;" style="image;aspect=fixed;html=1;points=[];align=center;fontSize=12;image=img/lib/azure2/compute/Function_Apps.svg;sketch=1;hachureGap=4;jiggle=2;curveFitting=1;fontFamily=Architects Daughter;fontSource=https%3A%2F%2Ffonts.googleapis.com%2Fcss%3Ffamily%3DArchitects%2BDaughter;fontColor=default;labelBackgroundColor=default;" vertex="1" parent="VgbTZJyo0fbsDSGsg5zc-1">
          <mxGeometry x="751" y="409" width="29.47" height="26" as="geometry" />
        </mxCell>
        <mxCell id="VgbTZJyo0fbsDSGsg5zc-73" value="Container&lt;div&gt;Regsitry&lt;/div&gt;" style="image;aspect=fixed;html=1;points=[];align=center;fontSize=12;image=img/lib/azure2/containers/Container_Registries.svg;sketch=1;hachureGap=4;jiggle=2;curveFitting=1;fontFamily=Architects Daughter;fontSource=https%3A%2F%2Ffonts.googleapis.com%2Fcss%3Ffamily%3DArchitects%2BDaughter;fontColor=default;labelBackgroundColor=default;" vertex="1" parent="VgbTZJyo0fbsDSGsg5zc-1">
          <mxGeometry x="747" y="523" width="36.79" height="33" as="geometry" />
        </mxCell>
        <mxCell id="VgbTZJyo0fbsDSGsg5zc-74" value="VM" style="image;aspect=fixed;html=1;points=[];align=center;fontSize=12;image=img/lib/azure2/compute/Virtual_Machine.svg;sketch=1;hachureGap=4;jiggle=2;curveFitting=1;fontFamily=Architects Daughter;fontSource=https%3A%2F%2Ffonts.googleapis.com%2Fcss%3Ffamily%3DArchitects%2BDaughter;fontColor=default;labelBackgroundColor=default;" vertex="1" parent="VgbTZJyo0fbsDSGsg5zc-1">
          <mxGeometry x="590" y="524" width="46.36" height="43" as="geometry" />
        </mxCell>
        <mxCell id="VgbTZJyo0fbsDSGsg5zc-75" style="edgeStyle=orthogonalEdgeStyle;curved=1;rounded=0;orthogonalLoop=1;jettySize=auto;html=1;entryX=0.469;entryY=1.007;entryDx=0;entryDy=0;entryPerimeter=0;strokeColor=#FF8000;strokeWidth=2;align=left;verticalAlign=middle;fontFamily=Gloria Hallelujah;fontSource=https%3A%2F%2Ffonts.googleapis.com%2Fcss%3Ffamily%3DGloria%2BHallelujah;fontSize=13;fontColor=default;labelBackgroundColor=none;endArrow=classic;flowAnimation=1;" edge="1" parent="VgbTZJyo0fbsDSGsg5zc-1" source="VgbTZJyo0fbsDSGsg5zc-67" target="VgbTZJyo0fbsDSGsg5zc-70">
          <mxGeometry relative="1" as="geometry" />
        </mxCell>
        <mxCell id="VgbTZJyo0fbsDSGsg5zc-76" style="edgeStyle=orthogonalEdgeStyle;curved=1;rounded=0;orthogonalLoop=1;jettySize=auto;html=1;entryX=1.014;entryY=0.535;entryDx=0;entryDy=0;entryPerimeter=0;strokeColor=#FF8000;strokeWidth=2;align=left;verticalAlign=middle;fontFamily=Gloria Hallelujah;fontSource=https%3A%2F%2Ffonts.googleapis.com%2Fcss%3Ffamily%3DGloria%2BHallelujah;fontSize=13;fontColor=default;labelBackgroundColor=none;endArrow=classic;flowAnimation=1;exitX=1.003;exitY=0.455;exitDx=0;exitDy=0;exitPerimeter=0;" edge="1" parent="VgbTZJyo0fbsDSGsg5zc-1" source="VgbTZJyo0fbsDSGsg5zc-70" target="VgbTZJyo0fbsDSGsg5zc-66">
          <mxGeometry relative="1" as="geometry" />
        </mxCell>
        <mxCell id="bzmSxe6hW-nhnW78LcYb-0" value="&lt;span style=&quot;forced-color-adjust: none; color: rgb(0, 0, 0); font-size: 17px; font-style: normal; font-variant-ligatures: normal; font-variant-caps: normal; font-weight: 400; letter-spacing: normal; orphans: 2; text-align: left; text-indent: 0px; text-transform: none; widows: 2; word-spacing: 0px; -webkit-text-stroke-width: 0px; white-space: nowrap; text-decoration-thickness: initial; text-decoration-style: initial; text-decoration-color: initial; font-family: &amp;quot;Architects Daughter&amp;quot;; float: none; display: inline !important;&quot;&gt;Audit Log Collection &amp;amp; Analysis&lt;/span&gt;&lt;div style=&quot;forced-color-adjust: none; color: rgb(0, 0, 0); font-family: Helvetica; font-size: 17px; font-style: normal; font-variant-ligatures: normal; font-variant-caps: normal; font-weight: 400; letter-spacing: normal; orphans: 2; text-align: left; text-indent: 0px; text-transform: none; widows: 2; word-spacing: 0px; -webkit-text-stroke-width: 0px; white-space: normal; text-decoration-thickness: initial; text-decoration-style: initial; text-decoration-color: initial;&quot;&gt;&lt;font face=&quot;Architects Daughter&quot; style=&quot;forced-color-adjust: none; font-size: 17px;&quot;&gt;&lt;span style=&quot;forced-color-adjust: none; font-size: 17px; text-wrap: nowrap;&quot;&gt;收集雲端設定及Log&lt;/span&gt;&lt;/font&gt;&lt;/div&gt;" style="text;whiteSpace=wrap;html=1;" vertex="1" parent="VgbTZJyo0fbsDSGsg5zc-1">
          <mxGeometry x="-13" y="248" width="268" height="63" as="geometry" />
        </mxCell>
        <mxCell id="bzmSxe6hW-nhnW78LcYb-1" value="&lt;div style=&quot;&quot;&gt;&lt;span style=&quot;background-color: initial; font-size: 17px; text-wrap: nowrap;&quot;&gt;&lt;font face=&quot;Gloria Hallelujah&quot;&gt;Agentless Scanning&lt;/font&gt;&lt;/span&gt;&lt;/div&gt;&lt;div style=&quot;&quot;&gt;&lt;span style=&quot;background-color: initial; font-size: 17px; text-wrap: nowrap;&quot;&gt;&lt;font face=&quot;Gloria Hallelujah&quot;&gt;無代理VM/K8s掃瞄&lt;/font&gt;&lt;/span&gt;&lt;/div&gt;" style="text;whiteSpace=wrap;html=1;align=left;" vertex="1" parent="VgbTZJyo0fbsDSGsg5zc-1">
          <mxGeometry x="710" y="142" width="196" height="55" as="geometry" />
        </mxCell>
      </root>
    </mxGraphModel>
  </diagram>
</mxfile>
